<?xml version="1.0" standalone="no"?>
<!DOCTYPE svg PUBLIC "-//W3C//DTD SVG 1.1//EN" "http://www.w3.org/Graphics/SVG/1.1/DTD/svg11.dtd" >
<svg xmlns="http://www.w3.org/2000/svg">
<metadata>Generated by IcoMoon</metadata>
<defs>
<font id="mpb-font" horiz-adv-x="1024">
<font-face units-per-em="1024" ascent="960" descent="-64" />
<missing-glyph horiz-adv-x="1024" />
<glyph unicode="&#x20;" horiz-adv-x="512" d="" />
<glyph unicode="&#xe900;" glyph-name="accesorios-basureros" d="M811.52 330.24h-599.040c-29.44 0-53.76 23.68-53.76 52.48v501.76c0 12.16 9.6 21.76 21.76 21.76h662.4c12.16 0 21.76-9.6 21.76-21.76v-501.76c0.64-29.44-23.68-52.48-53.12-52.48zM202.88 862.72v-480c0-4.48 4.48-8.32 9.6-8.32h599.040c5.12 0 9.6 3.84 9.6 8.32v480h-618.24zM745.6 161.28v-16.64l0.64-0.64v19.84c-0.64-0.64-0.64-1.92-0.64-2.56zM719.36 106.24l32-35.2h0.64l-32.64 35.2zM865.28 200.96v88.32c0 12.16-9.6 22.4-22.4 22.4h-661.76c-12.8 0-22.4-10.24-22.4-22.4v-88.32c0-12.16 9.6-22.4 22.4-22.4h44.8c-39.040-12.16-67.2-49.28-67.2-92.16 0-53.76 43.52-97.28 97.28-97.28 53.12 0 96.64 43.52 96.64 97.28 0 19.2-5.76 38.4-16.64 54.4l34.56 37.76h282.88l34.56-37.76c-11.52-16-17.28-35.2-17.28-54.4 0-53.76 44.16-97.28 97.28-97.28 53.76 0 97.28 43.52 97.28 97.28 0 42.88-28.16 79.36-67.2 92.16h44.8c12.8 0 22.4 10.24 22.4 22.4zM256 33.92c-29.44 0-52.48 23.68-52.48 52.48 0 20.48 12.16 39.040 30.080 47.36v-47.36c0-4.48 1.28-9.6 3.84-12.8 2.56-3.84 5.76-7.040 10.24-8.32 2.56-0.64 5.12-1.28 8.32-1.28 2.56 0 5.76 0.64 8.96 1.92 2.56 1.28 5.12 3.2 7.040 5.12l32 35.2c2.56-6.4 3.84-12.8 3.84-19.84 0-28.8-23.040-52.48-51.84-52.48zM290.56 157.44l-12.16-13.44v34.56h32l-19.84-21.12zM820.48 86.4c0-28.8-23.040-52.48-52.48-52.48-28.8 0-52.48 23.68-52.48 52.48 0 7.040 1.28 13.44 3.84 19.84l32.64-35.2c1.92-1.92 4.48-3.84 7.040-5.12 3.2-1.28 6.4-1.92 8.96-1.92 3.2 0 5.76 0.64 8.32 1.28 4.48 1.28 8.32 4.48 10.24 8.32 2.56 3.2 3.84 8.32 3.84 12.8v47.36c17.92-8.32 30.080-26.88 30.080-47.36zM714.24 178.56h32v-34.56l-0.64 0.64-11.52 12.16-19.84 21.76zM821.12 223.36h-617.6v43.52h617.6v-43.52zM320 414.080c-12.16 0-22.4 10.24-22.4 22.4v347.52c0 12.16 10.24 22.4 22.4 22.4s22.4-10.24 22.4-22.4v-347.52c0-12.16-10.24-22.4-22.4-22.4zM512.64 414.080c-12.16 0-22.4 10.24-22.4 22.4v347.52c0 12.16 10.24 22.4 22.4 22.4s22.4-10.24 22.4-22.4v-347.52c0-12.16-10.24-22.4-22.4-22.4zM704.64 414.080c-12.16 0-22.4 10.24-22.4 22.4v347.52c0 12.16 10.24 22.4 22.4 22.4s22.4-10.24 22.4-22.4v-347.52c0-12.16-9.6-22.4-22.4-22.4z" />
<glyph unicode="&#xe901;" glyph-name="accesorios-bebe" d="M516.48 589.44c-66.56 0-120.32 53.76-120.32 120.32s53.76 120.32 120.32 120.32 120.32-53.76 120.32-120.32-53.76-120.32-120.32-120.32zM516.48 785.92c-42.24 0-76.16-34.56-76.16-76.16s34.56-76.16 76.16-76.16 76.16 34.56 76.16 76.16-33.92 76.16-76.16 76.16zM873.6 131.84c-48 0-87.68 39.040-87.68 87.68s39.68 87.68 87.68 87.68 87.68-39.68 87.68-87.68-39.68-87.68-87.68-87.68zM873.6 263.040c-24.32 0-43.52-19.84-43.52-43.52 0-24.32 19.84-43.52 43.52-43.52s43.52 19.84 43.52 43.52c0 24.32-19.84 43.52-43.52 43.52zM780.8 121.6c-0.64-3.84-1.92-7.68-3.2-11.52h-0.64c1.28 3.84 2.56 7.68 3.84 11.52zM950.4 110.080h-173.44c1.28 3.84 2.56 7.68 3.84 11.52 0.64 3.84 1.28 8.32 1.28 12.8 0 0.64 0 0.64 0 1.28v195.2c0 17.28-6.4 33.92-19.2 46.080-11.52 12.16-28.8 19.2-46.080 19.2-35.84 0-65.28-29.44-65.28-65.28v-83.84c-7.040 27.52-32.64 48-62.72 48h-133.76c-17.28 0-33.92-6.4-46.080-19.2-12.16-12.16-19.2-28.16-19.2-46.080 0-35.84 29.44-64.64 65.28-64.64h60.16v-33.28c0-7.68 1.28-15.36 4.48-21.76h-94.080c-12.16 0-21.76-10.24-21.76-22.4s9.6-21.76 21.76-21.76h524.8c12.16 0 21.76 9.6 21.76 21.76s-9.6 22.4-21.76 22.4zM455.040 208.64c-11.52 0-21.12 9.6-21.12 21.12 0 5.76 1.92 11.52 6.4 15.36 3.84 3.84 8.96 6.4 14.72 6.4h133.76c12.16 0 21.76-9.6 21.76-21.76v-64.64h85.12v165.76c0 17.28 24.32 27.52 36.48 14.72 3.84-3.84 6.4-8.96 6.4-14.72v-195.2c0-12.16-10.24-22.4-23.040-22.4h-137.6c-10.24 0-18.56 8.32-18.56 18.56v76.8h-104.32zM579.84 480.64h-114.56l-17.92 65.92c0.64 30.72-11.52 59.52-33.92 80l-16.64 14.72c-42.24 37.76-107.52 33.92-145.28-8.32l-179.2-199.68c-1.92-2.56-3.2-5.12-3.84-7.68-10.88-17.92-16.64-37.76-16.64-58.88v-246.4c0-18.56 14.72-33.28 33.28-33.28h161.28c18.56 0 33.28 14.72 33.28 33.28v202.88l65.28 72.96 1.28-3.2c7.68-29.44 32.64-49.28 64-51.2 0.64 0 0.64 0 1.28 0h168.96c17.92 0 35.84 7.68 48.64 20.48s20.48 30.080 20.48 48.64c0 38.4-31.36 69.76-69.76 69.76zM598.4 392.96c-5.12-4.48-11.52-7.040-17.92-7.040h-168.96c-11.52 0-20.48 7.68-23.040 18.56l-12.16 42.24c-1.92 7.68-7.68 13.44-16 15.36-7.68 1.92-16-0.64-21.12-6.4l-97.92-109.44c-3.84-3.84-5.76-9.6-5.76-14.72v-200.32h-139.52v235.52c0 14.080 3.84 27.52 11.52 39.040 0.64 0.64 1.28 1.92 1.92 2.56l174.72 195.84c21.76 23.68 58.88 26.24 83.2 4.48l16.64-14.72c13.44-12.16 20.48-30.080 19.2-48 0-2.56 0-5.12 0.64-7.68l23.68-85.76c2.56-9.6 11.52-16 21.12-16h131.2c14.080 0 25.6-11.52 25.6-25.6 0-6.4-2.56-12.8-7.040-17.92z" />
<glyph unicode="&#xe902;" glyph-name="accesorios-regadera" d="M334.080 289.92c2.56-1.92 5.76-4.48 8.32-7.040v0.64c-2.56 2.56-5.12 4.48-8.32 6.4zM959.36 364.8c-8.32 10.24-21.12 16-34.56 16h-147.84l6.4 24.96c1.28 2.56 1.28 5.76 0.64 8.96l-16 103.040 8.96 32.64 76.8-21.76c1.92-0.64 4.48-1.28 6.4-1.28 9.6 0 18.56 6.4 21.12 16 3.2 12.16-3.2 24.32-15.36 27.52l-77.44 22.4 4.48 15.36 76.16-21.12c2.56-0.64 4.48-1.28 6.4-1.28 9.6 0 18.56 6.4 21.12 16 3.2 12.16-3.2 24.32-15.36 27.52l-76.8 22.4 5.76 21.12 76.8-21.76c1.92-0.64 3.84-0.64 6.4-0.64 9.6 0 18.56 6.4 21.12 16 3.2 11.52-3.84 23.68-15.36 27.52l-76.8 21.76 5.76 21.12 76.16-21.76c2.56-0.64 4.48-0.64 6.4-0.64 9.6 0 18.56 6.4 21.12 16 3.84 11.52-3.2 24.32-15.36 27.52l-95.36 26.88-1.92 0.64c-1.28 0-2.56 0.64-3.2 0.64-0.64 0.64-1.92 0.64-3.2 0.64-9.6 0-18.56-6.4-21.12-16-0.64-1.92-0.64-4.48-0.64-6.4l-16.64-56.96c0-0.64-0.64-0.64-0.64-1.28-0.64-1.28-0.64-1.92-0.64-3.2l-16.64-60.8-16-58.88-16.64-58.88c-1.28-3.2-1.28-6.4-0.64-8.96l16-103.040-8.32-32h-85.76v228.48c0 16-6.4 30.72-17.28 41.6-10.24 10.24-24.96 16-39.68 16h-38.4v131.2c0 15.36-6.4 30.080-17.28 40.96s-23.68 14.080-39.040 16.64v30.080c0 12.16-10.24 22.4-22.4 22.4s-21.76-10.24-21.76-22.4v-30.080h-49.28v30.080c0 12.16-10.24 22.4-22.4 22.4s-22.4-10.24-22.4-22.4v-30.080h-1.92c-31.36 0-56.96-25.6-56.96-57.6v-131.2h-38.4c-31.36 0-56.96-25.6-56.96-57.6v-168.96h-28.8c-32 0-57.6-26.24-57.6-58.24v-81.92h-5.12c-32 0-57.6-26.24-57.6-57.6v-254.72h885.12l34.56 340.48c1.28 13.44-3.2 26.88-12.16 36.48zM340.48 798.080c0 7.040 5.76 13.44 12.8 13.44h139.52c3.2 0 6.4-1.28 8.32-3.84 2.56-2.56 4.48-5.76 4.48-9.6v-131.2h-165.12v131.2zM159.36 382.080c0 7.68 5.76 13.44 12.8 13.44h67.2c7.040 0 12.8-5.76 12.8-13.44v-81.92h-92.8v81.92zM314.88 32.64h-218.24v209.92c0 7.040 5.76 13.44 12.8 13.44h192.64c3.84 0 6.4-1.28 8.96-3.84s3.84-6.4 3.84-9.6v-209.92zM600.96 32.64h-241.92v209.92c0 16-6.4 30.080-16.64 40.32-2.56 2.56-5.76 5.12-8.32 7.040-9.6 6.4-20.48 10.24-32 10.24h-5.76v81.92c0 5.76-0.64 10.88-2.56 16-1.28 5.12-3.2 10.24-6.4 14.72-1.92 3.84-5.12 7.040-7.68 10.24-1.28 1.28-2.56 2.56-3.84 3.2-3.2 3.2-7.040 5.76-10.88 7.68-1.92 1.28-4.48 1.92-7.040 3.2-0.64 0-1.28 0.64-1.92 0.64 0 0-0.64 0-1.28 0-3.2 1.28-6.4 1.92-9.6 1.92v169.6c0 7.68 5.76 13.44 12.8 13.44h330.24c3.2 0 6.4-1.28 8.32-3.84 2.56-2.56 4.48-5.76 4.48-9.6v-576.64zM897.28 32.64h-252.16v303.36h102.4l179.2-0.64c0.64-0.64 0.64-1.28 0.64-2.56l-30.080-300.16zM819.2 785.92c-1.28 0-2.56 0.64-3.2 0.64 0.64 0.64 1.92 0 2.56 0l0.64-0.64z" />
<glyph unicode="&#xe903;" glyph-name="asientos-inodoros" d="M161.28 446.72c1.92-27.52 5.12-55.040 10.88-82.56-5.12 27.52-8.96 55.040-10.88 82.56zM721.28 817.28c4.48 0 7.040-0.64 9.6-1.92-2.56 2.56-5.76 2.56-9.6 1.92zM749.44 856.32c-1.92 0.64-3.2 1.28-5.12 1.92 1.92-1.28 3.84-1.92 5.76-3.2l-0.64 1.28zM749.44 856.32c-1.92 0.64-3.2 1.28-5.12 1.92 1.92-1.28 3.84-1.92 5.76-3.2 2.56-1.28 5.12-2.56 7.68-3.84-2.56 2.56-5.12 3.84-8.32 5.12zM776.96 829.44c-3.2 5.76-7.040 10.88-11.52 14.72-2.56 3.2-5.12 5.12-7.68 7.040-2.56 1.28-5.12 2.56-7.68 3.84-1.92 1.28-3.84 1.92-5.76 3.2 1.92-0.64 3.2-1.28 5.12-1.92l-10.88 23.040c-12.8 27.52-35.2 40.96-63.36 39.040-28.16-2.56-47.36-17.92-53.12-43.52l-2.56-13.44h-208l-8.32 17.92c-12.8 27.52-35.2 40.96-63.36 39.040-28.8-2.56-48-17.92-53.76-43.52l-3.2-16.64c-16-5.12-28.16-16-36.48-33.92-64.64-126.080-92.8-252.16-85.12-377.6 1.92-27.52 5.76-55.040 10.88-82.56 5.76-28.16 13.44-56.32 21.76-83.84 9.6-27.52 20.48-55.040 32.64-82.56 6.4-13.44 13.44-27.52 20.48-40.96 26.24-49.28 63.36-91.52 111.36-126.080 48.64-35.2 102.4-53.12 155.52-53.12 53.76 0 106.24 17.92 152.96 53.76 35.84 28.16 71.040 65.92 100.48 108.8 51.2 72.96 81.28 160.64 92.16 268.16 16 159.36-10.88 296.96-82.56 421.12zM677.12 896c17.92 1.28 32-6.4 41.6-26.24h-74.88c3.84 18.56 17.92 24.96 33.28 26.24zM341.12 896c17.92 1.28 32-6.4 41.6-26.24h-74.24c3.84 18.56 17.28 24.96 32.64 26.24zM814.72 412.8c-10.24-99.84-37.76-180.48-83.84-247.040-27.52-39.68-58.88-73.6-91.52-98.56-76.8-60.16-172.16-60.16-254.72 0-10.88 7.68-20.48 16-30.080 24.32-28.16 24.96-50.56 54.4-67.84 85.76-108.16 205.44-108.8 416-0.64 626.56 5.76 10.88 9.6 13.44 21.12 13.44h1.92c49.28-1.28 98.56-0.64 147.84-0.64h112.64c50.56 0 101.12 0 151.68 0.64 3.84 0.64 7.040 0.64 9.6-1.92 2.56-1.28 4.48-3.84 7.040-8.32 67.2-115.84 92.16-244.48 76.8-394.24z" />
<glyph unicode="&#xe904;" glyph-name="asientos-regadera" d="M960 744.32h-125.44c-12.16 0-22.4-10.24-22.4-22.4s10.24-22.4 22.4-22.4h40.32v-37.12h-725.76v37.12h40.32c12.16 0 22.4 10.24 22.4 22.4s-10.24 22.4-22.4 22.4h-125.44c-12.16 0-22.4-10.24-22.4-22.4s10.24-22.4 22.4-22.4h40.32v-472.96c0-41.6 33.28-74.88 74.88-74.88h665.6c41.6 0 74.88 33.28 74.88 74.88v472.96h40.32c12.16 0 22.4 10.24 22.4 22.4s-10.24 22.4-22.4 22.4zM874.88 226.56c0-16.64-13.44-30.080-30.080-30.080h-665.6c-16.64 0-30.080 13.44-30.080 30.080v391.040h725.76v-391.040zM800 505.6h-576c-12.16 0-22.4 10.24-22.4 22.4s10.24 22.4 22.4 22.4h576c12.16 0 22.4-10.24 22.4-22.4s-10.24-22.4-22.4-22.4zM800 377.6h-576c-12.16 0-22.4 10.24-22.4 22.4s10.24 22.4 22.4 22.4h576c12.16 0 22.4-10.24 22.4-22.4s-10.24-22.4-22.4-22.4zM800 249.6h-576c-12.16 0-22.4 10.24-22.4 22.4s10.24 22.4 22.4 22.4h576c12.16 0 22.4-10.24 22.4-22.4s-10.24-22.4-22.4-22.4z" />
<glyph unicode="&#xe905;" glyph-name="barras-acero" d="M917.12 853.12c-48 47.36-131.2 47.36-178.56 0-32-32-43.52-76.8-33.28-117.76l-494.080-494.72h-0.64c-37.12 7.040-76.8-3.84-105.6-32.64-22.4-22.4-35.2-51.84-35.2-83.84 0-31.36 12.8-61.44 35.2-83.2 23.040-23.68 53.12-35.2 83.2-35.2 30.72 0 60.8 11.52 83.84 35.2 23.040 23.040 34.56 53.12 34.56 83.2 0 10.88-1.28 21.12-4.48 31.36l488.32 488.32c11.52-4.48 24.32-6.4 37.12-6.4 33.92 0 65.92 12.8 89.6 36.48 49.28 49.28 49.28 129.92 0 179.2zM240.64 72.32c-28.8-28.8-75.52-28.8-104.32 0s-28.8 75.52 0 104.32c9.6 9.6 21.12 15.36 33.28 18.56-12.16-23.68-7.68-53.12 11.52-72.32 12.16-12.16 28.16-18.56 44.16-18.56 12.8 0 24.96 3.84 35.84 11.52-1.28-15.36-8.32-30.72-20.48-43.52zM792.32 708.48l-43.52-43.52-511.36-510.72c-6.4-7.040-17.92-6.4-24.96 0-6.4 7.040-6.4 18.56 0 24.96l42.88 42.88 512 511.36c3.2 3.84 7.68 5.12 12.16 5.12s8.96-1.28 12.8-5.12c3.2-3.2 5.12-7.68 5.12-12.16s-1.92-9.6-5.12-12.8zM885.12 705.92c-15.36-15.36-35.84-23.040-56.32-23.040 19.2 24.32 17.28 60.16-5.12 82.56-20.48 20.48-52.48 23.68-76.8 8.96 2.56 17.28 9.6 33.28 23.040 46.72 15.36 15.36 35.84 24.32 57.6 24.32s42.24-8.96 57.6-24.32c32-31.36 32-83.2 0-115.2z" />
<glyph unicode="&#xe906;" glyph-name="basureros" d="M818.56 700.8h-55.68l-44.8 156.16c-10.24 36.48-43.52 61.44-81.28 61.44h-249.6c-37.76 0-71.040-24.96-81.28-61.44l-44.8-156.16h-55.68c-12.16 0-22.4-10.24-22.4-22.4v-98.56c0-12.16 10.24-22.4 22.4-22.4h23.040l46.080-517.12c3.2-35.84 32.64-62.72 68.48-62.72h337.28c35.84 0 65.28 26.88 68.48 62.72l46.72 517.12h23.040c12.16 0 22.4 10.24 22.4 22.4v98.56c0 12.16-10.24 22.4-22.4 22.4zM227.84 656h49.92c10.24 0 19.2 6.4 21.76 16l49.28 172.8c4.48 16.64 20.48 28.8 38.4 28.8h249.6c17.92 0 33.28-12.16 38.4-28.8l49.28-172.8c2.56-9.6 11.52-16 21.76-16h49.92v-53.76h-568.32v53.76zM704.64 44.16c-1.28-12.16-11.52-21.76-24.32-21.76h-337.28c-12.16 0-22.4 9.6-23.68 21.76l-46.080 513.28h477.44l-46.080-513.28zM722.56 646.4l-47.36 166.4c-8.32 29.44-35.84 50.56-67.2 50.56h-192c-31.36 0-58.88-21.12-67.84-50.56l-47.36-166.4c-1.92-7.040 0-14.080 3.84-19.84 4.48-5.12 10.88-8.96 17.92-8.96h378.88c7.040 0 13.44 3.84 17.92 8.96 3.84 5.76 5.12 13.44 3.2 19.84zM352 662.4l39.68 138.24c3.2 10.24 12.8 17.92 24.32 17.92h192c10.88 0 21.12-7.68 24.32-18.56l39.040-137.6h-319.36zM722.56 646.4l-47.36 166.4c-8.32 29.44-35.84 50.56-67.2 50.56h-192c-31.36 0-58.88-21.12-67.84-50.56l-47.36-166.4c-1.92-7.040 0-14.080 3.84-19.84 4.48-5.12 10.88-8.96 17.92-8.96h378.88c7.040 0 13.44 3.84 17.92 8.96 3.84 5.76 5.12 13.44 3.2 19.84zM352 662.4l39.68 138.24c3.2 10.24 12.8 17.92 24.32 17.92h192c10.88 0 21.12-7.68 24.32-18.56l39.040-137.6h-319.36zM722.56 646.4l-47.36 166.4c-8.32 29.44-35.84 50.56-67.2 50.56h-192c-31.36 0-58.88-21.12-67.84-50.56l-47.36-166.4c-1.92-7.040 0-14.080 3.84-19.84 4.48-5.12 10.88-8.96 17.92-8.96h378.88c7.040 0 13.44 3.84 17.92 8.96 3.84 5.76 5.12 13.44 3.2 19.84zM352 662.4l39.68 138.24c3.2 10.24 12.8 17.92 24.32 17.92h192c10.88 0 21.12-7.68 24.32-18.56l39.040-137.6h-319.36zM701.44 617.6h-378.88c-7.040 0-13.44 3.2-17.92 8.96-3.84 5.76-5.76 12.8-3.84 19.84l47.36 166.4c8.96 29.44 36.48 50.56 67.84 50.56h192c31.36 0 58.88-21.12 67.2-51.2l47.36-165.76c1.92-6.4 0.64-14.080-3.2-19.84-4.48-5.12-10.88-8.96-17.92-8.96zM352 662.4h319.36l-39.040 137.6c-3.2 10.88-13.44 18.56-24.32 18.56h-192c-11.52 0-21.12-7.68-24.32-18.56l-39.68-137.6zM577.28 130.56h-131.2c-54.4 0-98.56 44.16-98.56 98.56v160c0 54.4 44.16 98.56 98.56 98.56h131.2c54.4 0 98.56-44.16 98.56-98.56v-160c0-26.24-10.24-51.2-28.8-69.76s-42.88-28.8-69.76-28.8zM446.080 442.24c-29.44 0-53.76-24.32-53.76-53.76v-160c0-29.44 24.32-53.76 53.76-53.76h131.2c14.080 0 27.52 5.76 37.76 16s16 23.68 16 37.76v160c0 29.44-24.32 53.76-53.76 53.76h-131.2z" />
<glyph unicode="&#xe907;" glyph-name="bebederos" d="M485.76 642.56c-3.84 6.4-10.88 9.6-17.92 9.6h-298.88v138.88c0 61.44 64 70.4 91.52 44.8 10.24-10.24 16-25.6 16-44.8 0-12.16 10.24-22.4 22.4-22.4 12.8 0 22.4 10.24 22.4 22.4 0 39.68-16 64-30.080 76.8-52.48 49.92-167.040 26.24-167.040-76.8v-138.88h-49.92c-12.8 0-22.4-10.24-22.4-22.4v-173.44c0-12.8 9.6-22.4 22.4-22.4h329.6c9.6 0 17.92 5.76 21.12 14.72l64 173.44c2.56 7.040 1.28 14.72-3.2 20.48zM388.48 478.72h-291.84v128.64h339.2l-47.36-128.64zM493.44 709.12c-60.16 0-108.8 48.64-108.8 108.8s48.64 108.8 108.8 108.8 108.8-48.64 108.8-108.8-48.64-108.8-108.8-108.8zM493.44 881.28c-35.2 0-64-28.8-64-64s28.8-64 64-64c35.2 0 64 28.8 64 64s-28.8 64-64 64zM894.080-30.080c-39.040 0-78.080 24.32-78.080 70.4v433.28l-131.2 59.52v-101.76l-117.76-134.4c-20.48-20.48-46.72-27.52-72.32-19.2-27.52 8.96-48.64 33.28-53.76 60.8-4.48 26.88 7.040 53.12 31.36 71.040l71.040 86.4v175.36l4.48 5.76c5.12 6.4 49.28 65.92 65.92 82.56 26.24 26.24 38.4 21.76 73.6 4.48l225.28-160.64c14.080-6.4 59.52-33.28 59.52-115.84v-448c0-46.080-39.040-69.76-78.080-69.76zM639.36 602.88l220.8-100.48v-462.72c0-25.6 32-25.6 33.92-25.6s33.92 0 33.92 25.6v448c0 61.44-32 74.24-33.28 74.88l-5.12 2.56-224 160c-4.48 1.92-10.88 5.12-14.72 7.040-1.28-1.28-2.56-2.56-4.48-4.48-10.88-10.88-41.6-51.2-57.6-71.68v-176l-85.76-102.4c-14.72-12.16-19.84-21.12-17.92-31.36 1.92-10.88 11.52-21.76 23.040-24.96 9.6-3.84 18.56-1.28 26.24 6.4l105.6 120.32v154.88z" />
<glyph unicode="&#xe908;" glyph-name="bidets" d="M919.040 577.92c0 5.76-1.92 10.88-5.76 15.36-4.48 3.84-9.6 6.4-15.36 6.4h-716.16v151.68h90.88c23.040 0 26.24-9.6 26.24-13.44h45.44c0 23.68-18.56 58.88-71.68 58.88h-136.96v-197.12h-9.6c-11.52 0-21.12-9.6-21.12-21.12v-570.88c0-5.12 2.56-10.88 6.4-14.72s8.96-6.4 14.72-6.4h649.6c6.4 0 12.8 3.2 16.64 8.32 4.48 5.12 5.76 11.52 4.48 17.92-0.64 1.28-36.48 165.76-50.56 250.24 164.48 96 172.8 305.28 172.8 314.88zM712.96 293.76c-8.32-4.48-12.8-13.44-11.52-22.4 10.24-62.72 36.48-188.16 48-241.92h-602.24l0.64 528h727.040c-7.040-55.040-36.48-199.040-161.92-263.68zM158.72 806.4c1.28 26.24 11.52 42.88 24.96 56.96 14.080 13.44 30.080 23.68 56.32 24.96-0.64-26.88-10.88-42.88-24.32-56.96-14.080-13.44-30.72-23.68-56.96-24.96z" />
<glyph unicode="&#xe909;" glyph-name="cespol" d="M945.28 885.76h-243.2c-12.16 0-21.76-9.6-21.76-21.76v-94.72c0-12.16 9.6-21.76 21.76-21.76h14.72v-456.96c0-28.8-26.24-51.84-58.24-51.84-15.36 0-30.080 5.76-40.96 15.36-10.88 10.24-16.64 23.040-16.64 36.48v74.24h13.44c11.52 0 21.12 9.6 21.12 21.12v95.36c0 11.52-9.6 21.12-21.12 21.12h-14.72v140.16c0 90.88-78.72 165.12-175.36 165.12h-222.080v12.16c0 12.16-9.6 21.76-21.12 21.76h-102.4c-12.16 0-21.76-9.6-21.76-21.76v-225.92c0-11.52 9.6-21.76 21.76-21.76h102.4c11.52 0 21.12 10.24 21.12 21.76v12.16h183.040v-103.68h-14.080c-12.16 0-21.76-9.6-21.76-21.12v-95.36c0-11.52 9.6-21.12 21.76-21.12h14.080v-118.4c0-129.92 113.28-236.16 252.8-236.16h39.68c139.52 0 252.8 106.24 252.8 236.16v501.12h14.72c12.16 0 21.76 9.6 21.76 21.76v94.72c0 12.16-9.6 21.76-21.76 21.76zM159.36 615.68h-58.88v182.4h58.88v-182.4zM202.24 648.96v115.84h222.080c72.96 0 131.84-55.040 131.84-122.24v-140.16h-128v125.44c0 11.52-9.6 21.12-21.12 21.12h-204.8zM392.32 407.68v51.84h200.32v-51.84h-200.32zM887.68 246.4c0-106.24-94.080-192.64-209.92-192.64h-39.68c-115.2 0-209.28 86.4-209.28 192.64v118.4h128.64v-74.24c0-25.6 10.88-49.92 30.72-67.84 18.56-17.92 44.16-27.52 70.4-27.52 56.32 0 101.12 42.88 101.12 95.36v456.96h128v-501.12zM923.52 790.4h-199.68v51.84h199.68v-51.84z" />
<glyph unicode="&#xe90a;" glyph-name="coladeras" d="M512-22.4c-259.2 0-470.4 211.2-470.4 470.4s211.2 470.4 470.4 470.4 470.4-211.2 470.4-470.4-211.2-470.4-470.4-470.4zM512 873.6c-234.88 0-425.6-190.72-425.6-425.6s190.72-425.6 425.6-425.6 425.6 190.72 425.6 425.6-190.72 425.6-425.6 425.6zM512 66.56c-210.56 0-381.44 170.88-381.44 381.44s170.88 381.44 381.44 381.44 381.44-170.88 381.44-381.44-170.88-381.44-381.44-381.44zM512 784.64c-185.6 0-336.64-151.040-336.64-336.64s151.040-336.64 336.64-336.64c185.6 0 336.64 151.040 336.64 336.64s-151.040 336.64-336.64 336.64zM573.44 210.56c0-33.932-27.508-61.44-61.44-61.44s-61.44 27.508-61.44 61.44c0 33.932 27.508 61.44 61.44 61.44s61.44-27.508 61.44-61.44zM573.44 674.56c0-33.932-27.508-61.44-61.44-61.44s-61.44 27.508-61.44 61.44c0 33.932 27.508 61.44 61.44 61.44s61.44-27.508 61.44-61.44zM711.68 521.6h-399.36c-12.16 0-22.4 10.24-22.4 22.4s10.24 22.4 22.4 22.4h400c12.16 0 22.4-10.24 22.4-22.4s-10.24-22.4-23.040-22.4zM711.68 425.6h-399.36c-12.8 0-23.040 10.24-23.040 22.4s10.24 22.4 22.4 22.4h400c12.16 0 22.4-10.24 22.4-22.4s-9.6-22.4-22.4-22.4zM711.68 329.6h-399.36c-12.16 0-22.4 10.24-22.4 22.4s10.24 22.4 22.4 22.4h400c12.16 0 22.4-10.24 22.4-22.4s-10.24-22.4-23.040-22.4z" />
<glyph unicode="&#xe90b;" glyph-name="consumibles" d="M177.92 711.040c0 0.64 0 1.28-0.64 1.92v-1.92c0-5.12 0.64-10.88 2.56-16-1.28 5.12-1.92 10.88-1.92 16zM179.84 695.040c1.92-10.24 7.040-20.48 14.72-30.080-7.040 9.6-12.16 19.84-14.72 30.080zM208.64 607.36c0.64-1.28 1.28-1.92 2.56-2.56 1.92-1.28 3.84-2.56 5.76-3.84-3.2 2.56-5.76 4.48-8.32 6.4zM512 528c-17.28 0-34.56 0.64-51.2 1.92h-3.84c4.48-0.64 9.6-1.28 14.080-1.28h10.24c5.12 0 10.24-0.64 15.36-0.64 5.76-0.64 10.88-0.64 16-0.64h18.56l5.76 0.64v0.64c-8.32-0.64-16.64-0.64-24.96-0.64zM542.080 528.64v-0.64l7.040 0.64h-7.040zM549.76 528.64h6.4v0.64c-1.92 0-3.84 0-6.4-0.64zM586.88 531.84c-8.96-1.28-17.92-1.92-26.88-1.92v-0.64l17.28 1.28c1.92 0 3.84 0 10.24 0.64v0.64h-0.64zM739.2 566.4c0.64 0 5.12 1.92 5.76 1.92l1.92 1.28c-2.56-1.28-5.12-2.56-7.68-3.2zM739.2 566.4c0.64 0 5.12 1.92 5.76 1.92l1.92 1.28c-2.56-1.28-5.12-2.56-7.68-3.2zM739.2 566.4c0.64 0 5.12 1.92 5.76 1.92l1.92 1.28c-2.56-1.28-5.12-2.56-7.68-3.2zM371.84 48.64c28.8-6.4 60.16-10.88 92.8-12.8-32 2.56-63.36 6.4-92.8 12.8zM538.24 35.84c-12.16-0.64-24.96-1.28-37.12-1.28 3.84-0.64 7.040-0.64 10.88-0.64 27.52 0 55.040 1.92 81.28 5.12-17.92-1.92-36.48-2.56-55.040-3.2zM739.2 566.4c0.64 0 5.12 1.92 5.76 1.92l1.92 1.28c-2.56-1.28-5.12-2.56-7.68-3.2zM643.2 540.16c-16.64-3.2-33.28-5.76-50.56-7.68v-0.64c3.2 0 6.4 0.64 8.32 1.28 6.4 0.64 12.16 1.28 17.92 1.92l7.040 1.28c1.92 0 3.84 0 5.12 0.64 1.28 0 2.56 0.64 3.84 0.64 0.64 0.64 1.28 0.64 1.92 0.64 2.56 0 4.48 0.64 7.68 1.28l5.12 0.64 6.4 1.92c1.28 0 1.92 0.64 2.56 0.64v0.64c-5.12-1.28-10.24-2.56-15.36-3.2zM674.56 579.2v0c-1.28 0.64-1.28 0.64-1.28 0.64s0 0-0.64-0.64c-0.64 0-1.28 0-1.92-0.64h-0.64c-0.64-0.64-1.92-0.64-2.56-1.28h-0.64c-0.64 0-0.64 0-0.64 0v-0.64l1.92-5.12c0.64 0.64 1.92 1.28 3.84 1.28 0.64 0.64 1.28 0.64 1.92 0.64h1.28c0.64 0 1.92 0 2.56-0.64l-3.2 6.4zM739.2 566.4c0.64 0 5.12 1.92 5.76 1.92l1.92 1.28c-2.56-1.28-5.12-2.56-7.68-3.2zM145.28 718.72v-7.68c0 3.2 0 5.76 0.64 8.96-0.64-0.64-0.64-0.64-0.64-1.28zM673.28 547.2c-1.28-0.64-2.56-1.28-3.84-1.92 1.92 0 3.2 0.64 4.48 1.28l-0.64 0.64zM673.28 579.84c0 0 0 0-0.64-0.64-0.64 0-1.28 0-1.92-0.64h-0.64c-0.64 0-0.64 0-1.28 0-1.92 0-3.2-0.64-4.48-0.64-4.48-1.28-8.96-1.92-13.44-3.2-3.2-1.28-7.040-1.28-10.24-1.92-9.6-1.92-19.84-3.84-30.72-5.12-1.28-0.64-3.2-1.28-4.48-0.64h-0.64c-8.32-1.28-17.28-2.56-26.24-3.2 3.84 0 7.040 0 10.24 0.64h2.56c1.28 0.64 1.92 0.64 3.2 0.64h0.64c3.84 0.64 7.040 0.64 10.88 1.28 2.56 0 5.76 0.64 8.32 0.64 0.64 0 7.68 1.28 8.96 1.28 0 0 1.92 0.64 3.84 0.64 0.64 0 1.92 0.64 3.2 0.64 0.64 0 3.84 0.64 4.48 0.64l3.84 1.28c1.28 0 3.84 0.64 4.48 0.64l8.32 1.92 5.76 1.28 4.48 0.64 3.84-5.76c0.64 0.64 1.92 1.28 2.56 1.28 0.64 0.64 1.92 1.28 3.84 1.28 0.64 0.64 1.28 0.64 1.92 0.64h1.28c0.64 0 1.92 0 2.56-0.64 1.28 0 1.92 0 3.2-0.64l-1.28 7.040v1.28c7.040 1.92 12.16 3.84 16.64 5.12l3.84 1.28c0.64 0 5.12 1.28 5.12 1.92-10.24-3.2-20.48-6.4-32-8.96zM658.56 543.36c-5.12-1.28-10.24-2.56-15.36-3.2 4.48 0 8.96 1.28 12.8 1.92 1.28 0 1.92 0.64 2.56 1.28 0.64-0.64 0.64-0.64 0.64-0.64v0.64c0 0 0 0-0.64 0zM497.92 560.64c4.48-0.64 9.6-0.64 14.080-0.64h0.64c5.76 0 11.52 0 16.64 0.64h-31.36zM560 529.92c-1.28-0.64-2.56-0.64-3.84-0.64h3.84c8.96 0.64 17.92 1.28 26.88 2.56-8.96-1.28-17.92-1.92-26.88-1.92zM460.8 529.92c3.2-0.64 6.4-0.64 10.24-1.28h10.24c5.12 0 10.24-0.64 15.36-0.64h15.36c-17.28 0-34.56 0.64-51.2 1.92zM300.8 595.84c-8.32 2.56-16 5.76-23.68 8.96 7.68-3.2 15.36-7.040 23.68-9.6 12.8-5.12 26.88-9.6 40.96-13.44 3.84-1.28 8.32-1.92 12.16-2.56-18.56 4.48-36.48 10.24-53.12 16.64zM360.96 577.28c1.92-0.64 4.48-1.28 7.040-1.92 10.88-2.56 22.4-4.48 33.92-5.76-14.080 2.56-27.52 5.12-40.96 7.68zM412.8 567.68c3.84-0.64 7.68-1.28 11.52-1.92 7.040-1.28 14.080-1.92 21.12-1.92-10.88 1.28-21.76 2.56-32.64 3.84zM276.48 605.44c-7.68 3.2-14.72 6.4-21.12 10.24 7.040-3.84 14.080-7.68 21.12-10.88h0.64v0.64h-0.64zM254.72 616.32l0.64-0.64v0.64h-0.64zM218.24 640c0.64 0 0.64 0 0.64-0.64v0.64h-0.64zM254.72 616.32l0.64-0.64v0.64h-0.64zM276.48 605.44v-0.64h0.64v0.64h-0.64zM300.8 595.84c-8.32 2.56-16 5.76-23.68 8.96 7.68-3.2 15.36-7.040 23.68-9.6 12.8-5.12 26.88-9.6 40.96-13.44 3.84-1.28 8.32-1.92 12.16-2.56-18.56 4.48-36.48 10.24-53.12 16.64zM360.96 577.28c1.92-0.64 4.48-1.28 7.040-1.92 10.88-2.56 22.4-4.48 33.92-5.76-14.080 2.56-27.52 5.12-40.96 7.68zM412.8 567.68c3.84-0.64 7.68-1.28 11.52-1.92 7.040-1.28 14.080-1.92 21.12-1.92-10.88 1.28-21.76 2.56-32.64 3.84zM497.92 560.64c4.48-0.64 9.6-0.64 14.080-0.64h0.64c5.76 0 11.52 0 16.64 0.64h-31.36zM666.88 577.28h0.64c0.64 0.64 0.64 1.28 1.28 1.28-1.92 0-3.2-0.64-4.48-0.64-4.48-1.28-8.96-1.92-13.44-3.2-3.2-1.28-7.040-1.28-10.24-1.92-9.6-1.92-19.84-3.84-30.72-5.12-1.28-0.64-3.2-1.28-4.48-0.64h-0.64c-8.32-1.28-17.28-2.56-26.24-3.2 3.84 0 7.040 0 10.24 0.64h2.56c1.28 0.64 1.92 0.64 3.2 0.64h0.64c3.84 0.64 7.040 0.64 10.88 1.28 2.56 0 5.76 0.64 8.32 0.64 0.64 0 7.68 1.28 8.96 1.28 0 0 1.92 0.64 3.84 0.64 0.64 0 1.92 0.64 3.2 0.64 0.64 0 3.84 0.64 4.48 0.64l3.84 1.28c1.28 0 3.84 0.64 4.48 0.64l8.32 1.92 5.76 1.28 4.48 0.64 3.84-5.76c0.64 0.64 1.92 1.28 2.56 1.28l-1.92 5.12c0 0.64 0.64 0.64 0.64 0.64zM521.6 686.72c0 0-0.64 0-1.28 0h-3.2c2.56 0 4.48-0.64 6.4-1.28-0.64 0.64-1.28 0.64-1.92 1.28zM496 719.36v-1.28l0.64 0.64v0.64h-0.64zM680.96 572.16c-1.28 0.64-1.92 0.64-3.2 0.64-0.64 0.64-1.92 0.64-2.56 0.64h-1.28c-0.64 0-1.28 0-1.92-0.64-1.92 0-3.2-0.64-3.84-1.28-0.64 0-1.92-0.64-2.56-1.28l-2.56 3.84c1.28 1.28 1.92 1.92 3.2 2.56 0 0.64 0.64 0.64 0.64 0.64h0.64c0.64 0.64 0.64 1.28 1.28 1.28s0.64 0 1.28 0h0.64c0.64 0.64 1.28 0.64 1.92 0.64s0.64 0 1.28 0h0.64l0.64 0.64c1.28 0 3.2 0 4.48-0.64l1.28-7.040zM878.080 720.64c-9.6 99.2-167.040 173.44-366.080 173.44-74.88 0-143.36-10.24-200.96-28.8-14.080-4.48-27.52-9.6-40.32-15.36-12.8-5.12-24.96-11.52-35.84-17.28-52.48-30.080-84.48-69.12-88.96-112.64-0.64-3.2-0.64-5.76-0.64-8.96v-526.080c0-6.4 0.64-12.8 1.92-19.2 0.64-5.12 2.56-9.6 4.48-14.72 0.64-1.28 0.64-2.56 1.92-3.84 18.56-48 74.24-88.32 151.040-113.28 1.28-0.64 3.2-1.28 4.48-1.92 28.16-9.6 59.52-16.64 92.8-21.76 8.96-1.92 18.56-2.56 27.52-3.2 10.24-1.92 21.12-2.56 32-3.2 16.64-1.28 33.92-1.92 50.56-1.92 56.96 0 112 5.76 163.2 19.2 1.92 0 4.48 0.64 6.4 1.28 11.52 2.56 22.4 5.76 33.28 9.6 10.24 3.2 19.84 7.040 28.8 10.24 26.24 10.24 48.64 22.4 68.48 36.48 4.48 3.2 8.96 6.4 13.44 10.24 4.48 3.2 8.32 7.040 12.16 10.88s7.040 7.040 10.24 10.88 5.76 7.040 8.32 10.24c1.28 1.28 1.92 2.56 2.56 3.84 3.84 5.76 7.040 10.88 9.6 16.64 7.040 14.080 10.24 28.8 10.24 43.52v526.080c0 3.84 0 7.68-0.64 9.6zM659.2 50.56c-8.32-2.56-16.64-4.48-25.6-5.76-12.8-2.56-26.24-4.48-40.32-5.76-26.24-3.2-53.76-5.12-81.28-5.12-3.84 0-7.040 0-10.88 0.64-12.16 0-24.96 0-36.48 1.28-32.64 1.92-64 6.4-92.8 12.8-14.72 2.56-28.8 6.4-42.24 10.88-3.2 0.64-7.040 1.92-10.88 3.2-72.32 23.68-123.52 59.52-136.96 100.48-0.64 0.64-0.64 1.92-0.64 2.56-1.28 2.56-1.92 5.12-1.92 7.68-0.64 3.84-1.28 7.68-1.28 11.52v449.28c3.84-3.84 7.040-7.040 10.88-10.88 0.64 0 0.64-0.64 0.64-0.64 3.84-3.84 8.32-7.040 12.8-10.88 1.92-1.28 3.2-2.56 5.12-3.84 0 0 0.64-0.64 1.28-0.64 2.56-1.92 5.12-3.84 8.32-6.4 1.92-0.64 3.2-1.92 5.12-3.2 1.28-1.28 3.2-2.56 5.76-3.84 7.040-3.84 14.72-8.32 22.4-12.16 0.64 0 0.64-0.64 1.28-0.64 3.2-1.28 5.76-2.56 8.96-4.48 5.12-2.56 10.88-5.12 16.64-7.040 2.56-1.28 5.12-2.56 7.68-3.2 1.92-0.64 3.84-1.92 6.4-2.56 4.48-1.92 9.6-3.2 14.72-5.12 2.56-0.64 5.76-1.92 8.32-2.56 5.76-1.92 11.52-3.84 17.92-5.12 7.040-1.92 14.72-3.84 23.040-5.76 3.84-1.28 8.32-2.56 12.8-3.2 8.96-1.92 18.56-3.84 28.16-5.12 2.56-0.64 5.12-0.64 8.32-1.28 10.88-1.28 21.76-3.2 32.64-3.84 6.4-0.64 12.8-1.28 19.84-1.92h3.84c16.64-1.28 33.92-1.92 51.2-1.92 8.32 0 16.64 0 24.96 0.64h12.8c2.56 0.64 4.48 0.64 6.4 0.64 1.28 0 2.56 0 3.84 0.64 8.96 0 17.92 0.64 26.88 1.92h0.64c1.28 0 3.2 0 5.12 0.64 17.28 1.92 33.92 4.48 50.56 7.68 5.12 0.64 10.24 1.92 15.36 3.2 0.64 0 0.64 0 0.64 0v-492.8zM668.16 544.64v0.64h0.64l-0.64-0.64zM669.44 545.28c1.28 0.64 2.56 1.28 3.84 1.92l0.64-0.64c-1.28-0.64-2.56-1.28-4.48-1.28zM680.96 572.16c-1.28 0.64-1.92 0.64-3.2 0.64-0.64 0.64-1.92 0.64-2.56 0.64h-1.28c-0.64 0-1.28 0-1.92-0.64-1.92 0-3.2-0.64-3.84-1.28-0.64 0-1.92-0.64-2.56-1.28l-3.84 5.76-4.48-0.64-5.76-1.28-8.32-1.92c-0.64 0-3.2-0.64-4.48-0.64l-3.84-1.28c-0.64 0-3.84-0.64-4.48-0.64-1.28 0-2.56-0.64-3.2-0.64-1.92 0-3.84-0.64-3.84-0.64-1.28 0-8.32-1.28-8.96-1.28-2.56 0-5.76-0.64-8.32-0.64-3.84-0.64-7.040-0.64-10.88-1.28h-0.64c-1.28 0-1.92 0-3.2-0.64h-2.56c-3.2-0.64-6.4-0.64-10.24-0.64-2.56-0.64-4.48-0.64-7.040-0.64-4.48-0.64-9.6-1.28-14.080-1.28-3.84 0-7.68-0.64-11.52-0.64-5.76 0-10.88-0.64-16.64-0.64-5.12-0.64-10.88-0.64-16.64-0.64h-0.64c-4.48 0-9.6 0-14.080 0.64-5.12 0-9.6 0-14.72 0.64h-7.68c-2.56 0-4.48 0-6.4 0.64-0.64 0-0.64 0-1.28 0h-3.2c-6.4 0-12.8 0.64-19.2 1.92-7.040 0-14.080 0.64-21.12 1.92-3.84 0.64-7.68 1.28-11.52 1.92s-7.040 1.28-10.88 1.92c-11.52 1.28-23.040 3.2-33.92 5.76-2.56 0.64-5.12 1.28-7.040 1.92s-3.2 0.64-5.12 1.28c-0.64 0-1.28 0-1.92 0.64-3.84 0.64-8.32 1.28-12.16 2.56-14.080 3.84-28.16 8.32-40.96 13.44-8.32 2.56-16 6.4-23.68 9.6h-0.64c-7.040 3.2-14.080 7.040-21.12 10.88l-0.64 0.64c-7.040 3.2-12.8 7.040-18.56 10.88h-0.64c-5.76 3.84-11.52 8.32-16.64 12.16 0 0.64 0 0.64-0.64 0.64-5.12 4.48-9.6 8.96-13.44 12.8s-7.040 7.68-9.6 11.52c0 0-0.64 0-0.64 0.64-7.68 9.6-12.8 19.84-14.72 30.080-1.92 5.12-2.56 10.88-2.56 16v1.92l0.64 4.48c1.92 19.2 12.16 37.76 29.44 54.4 1.92 1.92 4.48 4.48 7.040 6.4 2.56 3.2 5.76 5.76 8.96 7.68 10.24 8.32 22.4 16 36.48 23.040 6.4 3.84 13.44 7.040 21.76 10.24 19.84 8.96 42.24 16.64 67.2 23.040 8.32 2.56 17.92 4.48 26.88 5.76 17.92 4.48 36.48 7.68 56.32 9.6 10.88 0.64 21.76 1.92 32.64 2.56 10.24 1.28 20.48 1.28 31.36 1.28 5.12 0.64 10.88 0.64 16 0.64h16c168.96-3.84 309.76-67.84 318.080-145.92v-5.12c0-21.12-10.24-41.6-28.8-60.16-0.64-0.64-1.28-0.64-1.92-1.92l-5.12-5.12c-1.28-1.28-3.2-2.56-4.48-3.84-1.28-0.64-1.92-1.28-3.2-2.56-1.28-0.64-3.2-1.92-5.12-3.84-3.2-1.28-6.4-3.84-9.6-6.4-1.28-0.64-2.56-1.92-4.48-3.2-0.64 0-1.92-0.64-2.56-1.28-0.64 0-0.64 0-1.28-0.64l-0.64-0.64c-1.92-0.64-3.84-1.92-5.76-3.2-0.64 0-1.28-0.64-1.92-0.64l-0.64-0.64c-1.28-0.64-2.56-1.28-4.48-2.56-1.28-0.64-1.92-1.28-3.2-1.92-0.64 0-1.28-0.64-1.92-1.28l-6.4-3.2c-1.92 0-4.48-1.28-6.4-2.56-1.28-0.64-3.2-1.28-5.12-2.56-1.28 0-2.56-0.64-3.84-1.28-0.64 0-1.28-0.64-2.56-1.28-0.64 0-1.92-0.64-2.56-1.28-0.64 0-1.28-0.64-1.28-0.64l-7.040-2.56c-5.12-1.92-10.88-3.84-16.64-5.76-1.28-0.64-2.56-0.64-3.84-1.28 0-0.64-4.48-1.92-5.12-1.92l-3.84-1.28c-4.48-1.28-9.6-3.2-16.64-5.12v-1.28l1.28-7.040zM846.72 184.96c0-7.68-1.28-14.72-3.84-22.4-0.64-2.56-1.92-5.12-3.84-7.68-0.64-3.2-2.56-6.4-5.12-9.6-8.96-13.44-21.12-26.24-37.76-38.4-7.040-5.12-14.72-9.6-23.040-14.72-8.32-4.48-16.64-8.96-26.24-12.8-13.44-6.4-27.52-12.16-42.88-16.64-2.56-0.64-4.48-1.28-6.4-1.92-1.28-0.64-1.92-0.64-3.2-1.28-0.64-0.64-1.92-0.64-3.2-1.28v492.16c15.36 4.48 30.080 9.6 44.16 14.72 1.28 0 2.56 0.64 3.84 1.28 2.56 0.64 5.12 1.92 7.68 3.2 1.92 0.64 3.84 1.92 6.4 2.56 0.64 0.64 1.92 0.64 2.56 1.28 1.28 0.64 2.56 1.28 3.84 1.92 1.92 0.64 3.2 1.28 4.48 1.92 4.48 1.92 8.96 4.48 13.44 6.4 1.28 0.64 2.56 1.28 3.2 1.92 0.64 0 1.28 0.64 1.92 1.28l0.64 0.64c1.92 0 2.56 0.64 3.84 1.28 2.56 1.92 5.76 3.2 8.32 5.12 1.28 0.64 2.56 1.28 3.84 1.92 6.4 4.48 12.16 8.32 17.28 12.16 1.92 1.28 3.2 2.56 4.48 3.2v0.64c1.92 1.28 3.2 2.56 5.12 4.48l0.64-0.64c0 0 4.48 3.84 5.12 3.84 1.28 1.28 3.2 2.56 3.2 3.2 1.28 1.28 3.2 2.56 3.84 3.2 0 0.64 4.48 4.48 4.48 4.48 0 0.64 1.92 2.56 3.2 3.84v-449.28zM216.96 600.96c-1.92 1.28-3.84 2.56-5.76 3.84-1.28 0.64-1.92 1.28-2.56 2.56 2.56-1.92 5.12-3.84 8.32-6.4zM659.2 543.36v0c0-0.64 0-0.64-0.64-0.64s-1.28-0.64-2.56-0.64c-3.84-0.64-8.32-1.92-12.8-1.92 5.12 0.64 10.24 1.92 15.36 3.2 0.64 0 0.64 0 0.64 0zM673.92 573.44c-0.64 0-1.28 0-1.92-0.64-1.92 0-3.2-0.64-3.84-1.28-0.64 0-1.92-0.64-2.56-1.28l-3.84 5.76-4.48-0.64-5.76-1.28-8.32-1.92c-0.64 0-3.2-0.64-4.48-0.64l-3.84-1.28c-0.64 0-3.84-0.64-4.48-0.64-1.28 0-2.56-0.64-3.2-0.64-1.92 0-3.84-0.64-3.84-0.64-1.28 0-8.32-1.28-8.96-1.28-2.56 0-5.76-0.64-8.32-0.64-3.84-0.64-7.040-0.64-10.88-1.28 3.2 0 6.4 0.64 9.6 1.92h0.64c1.28-0.64 3.2 0 4.48 0.64 10.24 0.64 20.48 2.56 30.72 5.12 3.2 0.64 7.040 0.64 10.24 1.92 3.84 0.64 7.040 1.28 10.24 1.92 1.92 0.64 3.84 0.64 5.12 0 0.64 0 0.64 0 1.28 0s1.28-0.64 1.92-0.64c1.92-0.64 3.2-1.28 4.48-2.56zM694.4 59.52c-0.64-0.64-1.92-0.64-3.2-1.28v0.64c1.28 0 2.56 0 3.2 0.64zM846.72 535.040v-350.080c0-7.68-1.28-14.72-3.84-22.4-0.64-2.56-1.92-5.12-3.84-7.68 1.92 4.48 3.2 8.96 4.48 13.44 1.28 3.2 1.92 7.040 1.92 10.24 0.64 1.92 0.64 3.84 0.64 6.4v346.88c0 1.28 0 1.92 0.64 3.2zM179.84 695.040c-1.92 5.12-2.56 10.88-2.56 16v1.92l0.64 4.48v-6.4c0-5.12 0.64-10.88 1.92-16zM194.56 664.96c-7.68 9.6-12.8 19.84-14.72 30.080 2.56-10.24 7.68-20.48 14.72-30.080zM235.52 627.2c-5.76 3.84-11.52 8.32-16.64 12.16 0 0.64 0 0.64-0.64 0.64h0.64c5.12-4.48 10.88-8.32 16.64-12.8zM353.92 579.2c-3.84 0.64-8.32 1.28-12.16 2.56-14.080 3.84-28.16 8.32-40.96 13.44-8.32 2.56-16 6.4-23.68 9.6h-0.64c-7.040 3.2-14.080 7.040-21.12 10.88l-0.64 0.64h0.64c6.4-3.84 13.44-7.040 21.12-10.88h0.64c7.68-3.2 15.36-6.4 23.68-9.6 16.64-6.4 34.56-12.16 53.12-16.64zM401.92 569.6c-11.52 1.28-23.040 3.2-33.92 5.76-2.56 0.64-5.12 1.28-7.040 1.92 13.44-2.56 26.88-5.12 40.96-7.68zM445.44 563.84c-7.040 0-14.080 0.64-21.12 1.92-3.84 0.64-7.68 1.28-11.52 1.92 10.88-1.28 21.76-2.56 32.64-3.84zM512 528h-15.36c-5.12 0-10.24 0.64-15.36 0.64h-10.24c-3.84 0.64-7.040 0.64-10.24 1.28 16.64-1.28 33.92-1.92 51.2-1.92zM529.28 560.64c-5.12-0.64-10.88-0.64-16.64-0.64h-0.64c-4.48 0-9.6 0-14.080 0.64h31.36zM523.52 685.44c-1.92 0.64-3.84 1.28-6.4 1.28h3.2c0.64 0 1.28 0 1.28 0 0.64-0.64 1.28-0.64 1.92-1.28zM673.92 573.44c-0.64 0-1.28 0-1.92-0.64-1.92 0-3.2-0.64-3.84-1.28-0.64 0-1.92-0.64-2.56-1.28l-3.84 5.76-4.48-0.64-5.76-1.28-8.32-1.92c-0.64 0-3.2-0.64-4.48-0.64l-3.84-1.28c-0.64 0-3.84-0.64-4.48-0.64-1.28 0-2.56-0.64-3.2-0.64-1.92 0-3.84-0.64-3.84-0.64-1.28 0-8.32-1.28-8.96-1.28-2.56 0-5.76-0.64-8.32-0.64l-0.64 0.64c1.28-0.64 3.2 0 4.48 0.64 10.88 1.28 21.12 3.2 30.72 5.12 3.2 0.64 7.040 0.64 10.24 1.92 4.48 1.28 8.96 1.92 13.44 3.2 0.64-0.64 1.28-0.64 1.92-0.64 0 0 0 0 0.64 0h0.64v-0.64c0.64 0 1.28-0.64 1.92-0.64 1.92-0.64 3.2-1.28 4.48-2.56zM528 736.64c-5.76 0.64-11.52 0.64-16 0.64s-10.24 0-16-0.64c-42.24-0.64-111.36-7.68-111.36-40.96 0-35.84 81.92-40.32 122.24-40.96h10.24c0.64 0 0.64 0 1.28 0 7.040 0 16 0 24.96 1.28 42.24 1.92 96 10.88 96 39.68 0 33.28-69.12 40.32-111.36 40.96zM496 719.36h0.64v-0.64l-0.64-0.64v1.28zM521.6 686.72c0.64-0.64 1.28-0.64 1.92-1.28-1.92 0.64-3.84 1.28-6.4 1.28h-5.12c-39.040 0-67.2 4.48-83.2 8.96 14.080 3.84 38.4 8.32 71.68 9.6h23.040c33.28-1.28 57.6-5.76 71.68-9.6-14.080-3.84-39.68-8.32-73.6-8.96zM496.64 719.36v-0.64l-0.64-0.64v1.28zM668.8 545.28l-0.64-0.64v0.64zM673.92 546.56c-1.28-0.64-2.56-1.28-4.48-1.28 1.28 0.64 2.56 1.28 3.84 1.92l0.64-0.64z" />
<glyph unicode="&#xe90c;" glyph-name="contra" d="M346.24 592.64c0.64-0.64 1.92-0.64 2.56-0.64h326.4c0.64 0 1.92 0 2.56 0.64h-331.52zM652.8 474.24v-90.24l20.48 1.92c12.16 1.28 23.040-7.68 24.32-20.48v108.8h-44.8zM673.28 385.92l-20.48-1.92-281.6-24.96v115.2h-44.8v-442.24c0-12.16 10.24-22.4 22.4-22.4h326.4c12.16 0 22.4 10.24 22.4 22.4v43.52c0 0.64 0 0.64 0 1.28v56.32c0 0.64 0 0.64 0 1.28v56.32c0 0.64 0 0.64 0 1.28v56.96c0 0.64 0 0.64 0 1.28v56.32c0 0.64 0 0.64 0 1.28v56.32c0 0.64 0 0.64 0 1.28-1.28 12.8-12.16 21.76-24.32 20.48zM652.8 95.36l-281.6-24.96v12.8l281.6 24.96v-12.8zM652.8 152.96l-281.6-24.96v13.44l281.6 24.32v-12.8zM652.8 210.56l-281.6-24.32v12.8l281.6 24.96v-13.44zM652.8 268.8l-281.6-24.96v12.8l281.6 24.96v-12.8zM652.8 326.4l-281.6-24.96v13.44l281.6 24.32v-12.8zM371.2 637.44v-0.64h281.6v0.64h-281.6zM824.32 637.44h-126.72v85.76h8.32c77.44 0 140.16 63.36 140.16 140.8 0 12.16-9.6 22.4-21.76 22.4h-624.64c-12.16 0-22.4-10.24-22.4-22.4 0-77.44 63.36-140.8 140.8-140.8h8.32v-85.76h-126.72c-12.16 0-22.4-10.24-22.4-22.4 0-78.080 63.36-140.8 140.8-140.8h387.84c37.76 0 72.96 14.72 99.2 40.96 26.88 26.88 40.96 62.080 40.96 99.84 0 12.16-9.6 22.4-21.76 22.4zM318.080 768c-44.8 0-83.2 31.36-92.8 73.6h573.44c-9.6-42.24-48-73.6-92.8-73.6h-387.84zM652.8 723.2v-86.4h-281.6v86.4h281.6zM773.76 547.2c-18.56-18.56-42.24-28.16-67.84-28.16h-387.84c-44.8 0-83.2 31.36-92.8 73.6h573.44c-3.84-17.28-12.8-33.28-24.96-45.44z" />
<glyph unicode="&#xe90d;" glyph-name="destapado" d="M512-6.4c-140.16 0-254.080 113.92-254.080 254.080 0 51.84 15.36 101.12 44.8 144 0 0 0 0.64 0.64 0.64 110.080 173.44 109.44 320.64 103.68 375.68-1.28 13.44-2.56 21.12-2.56 21.76-0.64 64 48 112.64 107.52 112.64s108.16-48.64 108.16-108.16c-0.64-5.12-1.92-12.8-3.2-25.6-5.12-55.68-5.76-203.52 104.32-378.24 28.8-42.24 44.16-91.52 44.16-143.36 0-139.52-113.28-253.44-253.44-253.44zM340.48 369.92c0-0.64-0.64-1.28-1.28-1.92-24.96-35.2-37.76-77.44-37.76-120.32 0-115.84 94.72-210.56 210.56-210.56s210.56 94.72 210.56 210.56c0 42.88-12.8 84.48-37.12 119.68-117.76 186.24-117.12 345.6-111.36 405.76 1.28 16.64 3.84 26.24 3.84 26.24-0.64 30.72-30.080 59.52-65.92 59.52-35.2 0-64.64-28.8-65.28-64 0.64-0.64 1.92-9.6 3.2-23.040 6.4-58.88 7.040-217.6-109.44-401.92zM613.76 254.080c-9.6 0-18.56 7.040-21.12 16-12.8 32-44.16 54.4-80.64 54.4-35.84 0-68.48-22.4-81.28-55.68-3.2-8.32-11.52-14.080-20.48-14.080-10.88 1.92-18.56 6.4-21.76 14.72-4.48 13.44-6.4 27.52-6.4 42.24 0 71.040 57.6 129.28 129.28 129.92 0 0 0.64 0 0.64 0 34.56 0 67.84-13.44 92.16-38.4 24.96-24.96 38.4-57.6 38.4-92.8 0 0 0 0 0 0 0-14.080-2.56-28.16-7.040-41.6-3.2-8.32-12.16-14.72-21.76-14.72zM620.8 311.040v0 0zM512 398.72c-0.64 0-0.64 0 0 0-39.040 0-71.68-26.24-82.56-60.8 46.080 38.4 120.32 37.76 165.76 0.64-4.48 12.8-11.52 24.96-21.12 34.56-17.28 16-39.040 25.6-62.080 25.6zM546.56 784.64c0-19.087-15.473-34.56-34.56-34.56s-34.56 15.473-34.56 34.56c0 19.087 15.473 34.56 34.56 34.56s34.56-15.473 34.56-34.56zM546.56 92.8c0-19.087-15.473-34.56-34.56-34.56s-34.56 15.473-34.56 34.56c0 19.087 15.473 34.56 34.56 34.56s34.56-15.473 34.56-34.56z" />
<glyph unicode="&#xe90e;" glyph-name="dispensador-jabon" d="M660.48 645.12v90.88c0 12.16-9.6 21.76-21.76 21.76h-253.44c-12.16 0-21.76-9.6-21.76-21.76v-90.88c-59.52-3.84-106.88-53.76-106.88-114.56v-514.56c0-12.16 9.6-21.76 21.76-21.76h467.2c12.16 0 21.76 9.6 21.76 21.76v514.56c0 60.8-47.36 110.72-106.88 114.56zM407.040 714.88h209.92v-69.12h-209.92v69.12zM723.84 37.76h-424.32v492.8c0 39.68 32.64 72.32 72.32 72.32h280.32c39.68 0 71.68-32.64 71.68-72.32v-492.8zM760.32 792.32c-3.84-3.84-9.6-5.76-14.72-5.76-5.76 0-11.52 2.56-15.36 7.040l-60.8 64.64h-82.56v-100.48h-42.88v100.48h-64v-100.48h-42.88v100.48h-42.88c-12.16 0-21.76 9.6-21.76 21.76s9.6 21.76 21.76 21.76h284.8c5.76 0 11.52-2.56 15.36-7.040l67.2-71.68c8.32-8.96 7.68-22.4-1.28-30.72z" />
<glyph unicode="&#xe90f;" glyph-name="dispensador-papel" d="M571.52 453.12c0-32.872-26.648-59.52-59.52-59.52s-59.52 26.648-59.52 59.52c0 32.872 26.648 59.52 59.52 59.52s59.52-26.648 59.52-59.52zM511.36 146.56c-0.64 0-0.64 0 0 0-12.8 0-22.4 10.24-22.4 22.4l1.92 119.040c0 12.16 10.24 21.76 22.4 21.76 0 0 0 0 0.64 0 12.16 0 22.4-10.24 21.76-22.4l-1.92-119.040c-0.64-12.16-10.24-21.76-22.4-21.76zM512 904.32c-248.96 0-451.2-202.24-451.2-451.2 0-161.28 85.12-303.36 213.76-382.72v-46.080c0-12.16 9.6-21.76 21.76-21.76s21.76 9.6 21.76 21.76v22.4c58.88-28.16 124.8-44.16 193.92-44.16 64 0 125.44 13.44 180.48 37.76v-26.88c0-12.16 9.6-21.76 21.76-21.76 11.52 0 21.76 9.6 21.76 21.76v48.64c135.68 78.080 227.2 224 227.2 391.040 0 248.96-202.24 451.2-451.2 451.2zM512 46.080c-224.64 0-407.68 182.4-407.68 407.040s183.040 407.68 407.68 407.68 407.68-183.040 407.68-407.68-183.040-407.040-407.68-407.040z" />
<glyph unicode="&#xe910;" glyph-name="saniasientos" d="M883.84 865.92c-9.6 17.92-28.16 30.080-49.28 30.080h-640c-19.84 0-37.76-11.52-47.36-28.16-20.48-5.12-35.2-22.4-35.2-44.8v-93.44c0-24.96 20.48-45.44 45.44-45.44h6.4l7.040-50.56c0.64-3.2 1.28-6.4 2.56-8.96v-282.88c0-188.16 152.96-341.76 341.12-341.76s341.76 153.6 341.76 341.76v295.040c0 2.56-0.64 5.76-2.56 7.68l7.040 39.040h5.76c24.96 0 45.44 20.48 45.44 45.44v94.72c-0.64 19.2-12.16 35.2-28.16 42.24zM813.44 341.76c0-165.12-133.76-298.88-298.88-298.88-164.48 0-298.24 133.76-298.24 298.88v213.76h69.76v-217.6c0-120.32 97.28-217.6 217.6-217.6s218.24 97.28 218.24 217.6c0 1.28 0 2.56-0.64 3.84v213.76h93.44v-213.76zM678.4 335.36c-1.92-94.72-80-171.52-175.36-171.52-96 0-174.72 78.72-174.72 174.72v238.72c0 2.56 2.56 4.48 6.4 5.12l10.88 1.92 76.8 19.2c26.88 6.4 54.4 9.6 81.28 9.6 27.52 0 55.040-3.2 81.92-9.6l76.16-19.2c5.12-1.28 9.6-2.56 13.44-2.56 1.92-0.64 3.84-1.92 3.84-5.12v-238.72c-1.28-0.64-1.28-1.28-0.64-2.56zM866.56 726.4h-23.040c-10.24 0-19.2-7.040-20.48-17.28l-12.8-69.12c-0.64-5.12 1.28-8.96 3.84-13.44v-28.8h-97.92c-6.4 13.44-19.2 23.040-35.84 25.6-2.56 0.64-5.76 0.64-8.32 1.92l-76.16 19.2c-60.16 14.72-123.52 14.72-183.68 0l-76.16-19.2-10.24-1.28c-16-2.56-28.8-12.16-34.56-25.6h-75.52v30.080c0 2.56-1.92 8.96-2.56 11.52l-10.88 67.84c-0.64 10.88-10.24 18.56-20.48 18.56l-27.52 3.2v93.44l7.040 3.2c10.24 0 19.2 7.040 20.48 17.28 1.28 5.12 6.4 9.6 12.16 9.6h639.36c6.4 0 11.52-5.12 12.16-9.6 2.56-9.6 13.44-19.2 23.040-19.84l-1.92-97.28zM284.8 823.68h51.2v-97.28h-51.2v97.28z" />
<glyph unicode="&#xe911;" glyph-name="dispensador-toalla-rollo" d="M252.16 304.64v-0.64l26.24 24.32-26.24-23.68zM796.16 780.8c-2.56 0.64-5.12 1.28-7.68 1.92h-31.36l-485.12 1.28c-7.040-0.64-14.080-1.92-19.84-5.12v-282.24l-121.6-118.4v-250.24h-33.28v-128h364.8v128h-43.52v8.32c42.24 32 44.8 78.080 44.16 107.52h336.64v519.040l-3.2 17.92zM419.84 85.12v-42.24h-279.68v42.24h279.68zM385.92 165.76l-10.24-6.4v-31.36h-202.24v232.96l78.72 76.16v-74.24l-31.36-30.080 28.8-30.72 2.56 1.92v0.64l26.24 23.68 9.6 8.96 78.72 74.24c14.080 12.8 28.8 0.64 32-1.92 1.28-1.28 14.080-13.44 4.48-26.88-4.48-6.4-39.040-42.24-67.84-70.4l-12.16-11.52 8.96-14.72c3.2-6.4 5.76-13.44 6.4-21.76v-4.48c0-14.72-5.12-28.16-13.44-35.84-5.76-5.12-13.44-7.040-22.4-5.12l-8.96-42.24c5.12-1.28 10.24-1.28 15.36-1.28 16.64 0 32 5.12 44.16 16 14.080 12.8 23.68 31.36 26.88 53.12h39.040c1.28-26.88-0.64-58.24-33.28-78.72zM757.12 287.36h-379.52c-0.64 1.28-1.28 3.2-1.92 5.12 6.4 5.76 11.52 11.52 16.64 16 5.12 5.12 9.6 9.6 13.44 13.44 7.68 8.32 13.44 14.080 18.56 19.2 4.48 5.76 8.32 9.6 10.88 13.44 2.56 3.2 3.84 5.12 5.12 7.040 17.28 24.96 12.16 57.6-12.8 80.64-27.52 24.32-64 24.96-89.6 1.28l-42.88-40.32v337.92h462.080v-453.76zM273.28 778.24h3.84v-0.64h-3.84v0.64zM796.16 776.32v-1.92c-2.56 0.64-5.12 1.28-7.68 1.92h-14.080v1.92h21.12v-1.92h0.64zM796.16 776.32v-1.92c1.28 0 2.56-0.64 3.2-1.28v3.2h-3.2zM295.040 778.24h-42.88v-5.76c5.76 3.2 12.8 4.48 19.84 5.12h119.040l-96 0.64zM796.16 776.32v-1.92c1.28 0 2.56-0.64 3.2-1.28v3.2h-3.2zM295.040 778.24h-42.88v-5.76c5.76 3.2 12.8 4.48 19.84 5.12h119.040l-96 0.64zM796.16 776.32v-1.92c1.28 0 2.56-0.64 3.2-1.28v3.2h-3.2zM295.040 778.24h-42.88v-5.76c5.76 3.2 12.8 4.48 19.84 5.12h119.040l-96 0.64zM788.48 776.32c2.56-0.64 5.12-1.28 7.68-1.92l3.2-17.92v19.84h-10.88zM252.16 778.24v-5.76c5.76 3.2 12.8 4.48 19.84 5.12h119.040l-96 0.64h-42.88zM295.040 778.24h-42.88v-5.76c5.76 3.2 12.8 4.48 19.84 5.12h119.040l-96 0.64zM796.16 776.32v-1.92c1.28 0 2.56-0.64 3.2-1.28v3.2h-3.2zM295.040 778.24h-42.88v-5.76c5.76 3.2 12.8 4.48 19.84 5.12h119.040l-96 0.64zM796.16 776.32v-1.92c1.28 0 2.56-0.64 3.2-1.28v3.2h-3.2zM295.040 778.24h-42.88v-5.76c5.76 3.2 12.8 4.48 19.84 5.12h119.040l-96 0.64zM796.16 776.32v-1.92c1.28 0 2.56-0.64 3.2-1.28v3.2h-3.2zM208.64 588.16v-3.2h23.040c-7.68 0-16 1.28-23.040 3.2zM278.4 778.24h-1.28l-3.84-0.64h21.76v1.92l-16.64-1.28zM821.76 584.96h-22.4v-0.64h43.52v3.2c-7.040-1.92-14.080-2.56-21.12-2.56zM799.36 773.12c-0.64 0.64-1.92 1.28-3.2 1.28l3.2-17.92v16.64zM775.040 778.24h-2.56l-15.36 1.28v-3.2h31.36c-2.56 0.64-5.12 1.28-8.32 1.28l-5.12 0.64zM926.72 896v-204.16c0-51.2-35.84-94.080-83.84-104.32-7.040-1.92-14.080-2.56-21.12-2.56h-22.4v42.24h0.64v82.56c0 1.92 0 3.84-0.64 5.76v57.6c25.6-9.6 43.52-34.56 43.52-63.36v-78.080c24.32 9.6 41.6 32.64 41.6 60.16v161.28h-717.44v-161.28c0-27.52 17.28-51.2 41.6-60.16v78.080c0 28.16 17.92 53.12 43.52 62.72v-56.32c-0.64-1.92-0.64-4.48-0.64-6.4v-82.56h0.64v-42.24h-20.48c-7.68 0-16 1.28-23.040 3.2-48.64 10.24-83.84 53.12-83.84 103.68v204.16h801.92zM252.16 302.080v-0.64l26.24 24.32-26.24-23.68zM332.16 283.52l-8.96 14.72h-0.64l8.96-14.72c3.84-6.4 6.4-13.44 7.040-21.76-0.64 8.32-3.2 15.36-6.4 21.76zM795.52 776.32l-15.36 1.28-5.12 0.64h-17.92l-366.080-0.64 397.44-1.28c2.56-0.64 5.12-1.28 7.68-1.92l3.2-17.92v19.84h-3.84zM252.16 772.48c5.76 3.2 12.8 4.48 19.84 5.12l-19.84-1.28v-3.84z" />
<glyph unicode="&#xe912;" glyph-name="dispensador-toalla-interdoblada" d="M366.72 289.92h-0.64c0.64-1.28 1.28-3.2 1.92-5.12-0.64 1.28-0.64 3.84-1.28 5.12zM895.36 126.72v248.96l-117.76 116.48v92.16h21.76c56.32 1.28 101.76 49.28 101.76 107.52v204.16h-778.24v-204.16c0-58.24 45.44-106.24 103.68-107.52h19.84v-92.16l-117.76-116.48v-248.96h-32.64v-126.72h354.56v126.72h-42.88v7.68c41.6 32.64 43.52 78.080 42.88 107.52h122.88c-0.64-30.080 1.92-75.52 42.24-107.52v-7.68h-42.24v-126.72h354.56v126.72h-32.64zM225.28 627.2c-33.92 0.64-61.44 30.080-61.44 64.64v161.92h696.32v-161.92c0-35.2-27.52-64-62.72-64.64h-19.84v129.28l-3.84 19.84h-20.48l-488.32 1.28-18.56-1.28v-149.12h-21.12zM408.96 83.84v-41.6h-271.36v41.6h271.36zM376.32 164.48l-9.6-6.4v-30.72h-197.12v230.4l76.8 76.16v-72.96l-30.72-30.72 28.16-31.36 2.56 2.56 34.56 33.92 76.16 72.96c14.080 13.44 28.8 0.64 31.36-1.92 0 0 0.64-0.64 1.28-1.28s1.28-1.28 1.92-1.92c0 0 0.64-1.28 1.28-1.92 3.2-4.48 6.4-12.8 0-21.12-4.48-7.040-37.76-41.6-65.92-69.76l-12.16-12.16 8.96-14.72c3.84-6.4 5.76-14.080 6.4-22.4v-4.48c0-14.72-4.48-27.52-12.8-35.2-5.76-5.12-13.44-7.040-22.4-5.12l-8.32-41.6c5.12-1.28 10.24-1.92 15.36-1.92 16 0 30.72 5.76 42.88 16.64 13.44 12.8 23.040 30.72 25.6 51.84h38.4c0.64-26.24-0.64-56.32-32.64-76.8zM368 284.16c-0.64 1.92-1.28 3.84-1.92 5.12h0.64c5.76 6.4 10.24 11.52 15.36 16 5.12 5.12 9.6 9.6 13.44 14.080 7.68 8.32 13.44 14.72 17.92 19.84s7.68 8.96 10.24 12.8c2.56 2.56 3.84 5.12 5.12 6.4 16.64 24.96 11.52 57.6-12.16 80-13.44 12.16-29.44 17.92-45.44 17.92-2.56 0-4.48 0-7.040-0.64-0.64 0-0.64-0.64-1.28-0.64-0.64 0.64-0.64 0-1.28 0h-2.56c-3.2-0.64-6.4-1.28-9.6-2.56-3.84-1.28-7.040-3.2-10.24-5.12-1.92-1.28-3.2-1.92-5.12-3.84-1.28-0.64-2.56-1.92-4.48-3.84l-41.6-39.68v335.36h448v-139.52h0.64v-12.16h-0.64v-185.6l-41.6 40.96c-24.96 24.32-60.8 23.68-87.040-0.64-24.32-23.040-28.8-55.040-12.16-80 3.84-6.4 16-21.76 62.080-68.48 0-1.28-0.64-3.2-1.28-5.12h-288zM615.040 241.28h38.4c2.56-20.48 11.52-39.68 25.6-51.84 12.16-10.24 26.88-16.64 42.88-16.64 5.12 0 10.24 0.64 15.36 1.92l-8.96 41.6c-8.96-1.92-16 0-21.76 5.12-8.32 7.040-12.8 20.48-12.8 35.2v4.48c0.64 8.32 2.56 16 6.4 22.4l8.96 14.72-12.16 12.16c-28.16 28.16-61.44 62.72-64.64 65.28l-3.2 6.4c-7.68 10.88 4.48 23.040 5.76 24.32 3.2 2.56 17.92 15.36 31.36 1.92l76.8-73.6 34.56-33.28v-0.64l2.56-1.92 28.16 31.36-30.72 29.44v73.6l76.8-76.16v-231.040h-197.12v30.72l-9.6 5.76c-32 22.4-33.28 52.48-32.64 78.72zM886.4 42.24h-271.36v41.6h271.36v-41.6zM742.4 468.48v0l28.8 30.080zM743.040 334.72l34.56-33.92v0.64l-34.56 33.28zM743.040 334.72l34.56-33.92v0.64l-34.56 33.28zM743.040 334.72l34.56-33.92v0.64l-34.56 33.28zM773.76 776.32l3.84-19.84v19.84h-3.84zM753.92 777.6h-483.2l503.040-1.28-19.84 1.28zM736 596.48v-12.16h0.64v12.16h-0.64zM694.4 440.32l41.6-40.96v0.64l-41.6 40.32zM366.72 456.32c-0.64 0-1.92 0-2.56-0.64 2.56 0.64 4.48 0.64 7.040 0.64h-4.48zM329.6 440.32l-41.6-40.32 41.6 39.68c1.92 1.92 3.2 3.2 4.48 3.84-1.28-0.64-3.2-1.92-4.48-3.2zM329.6 440.32l-41.6-40.32 41.6 39.68c1.92 1.92 3.2 3.2 4.48 3.84-1.28-0.64-3.2-1.92-4.48-3.2zM753.28 777.6h20.48v-1.28h-20.48v1.28zM773.76 776.32l3.84-19.84v19.84h-3.84zM736 596.48v-12.16h0.64v12.16h-0.64zM246.4 777.6v-1.28l18.56 1.28h-18.56zM288 596.48v-42.88h1.28v42.88h-1.28zM311.68 596.48v-42.88h22.4v42.88h-22.4zM356.48 596.48v-42.88h22.4v42.88h-22.4zM401.28 596.48v-42.88h22.4v42.88h-22.4zM446.080 596.48v-42.88h22.4v42.88h-22.4zM490.88 596.48v-42.88h22.4v42.88h-22.4zM535.040 596.48v-42.88h22.4v42.88h-22.4zM579.84 596.48v-42.88h22.4v42.88h-22.4zM624.64 596.48v-42.88h22.4v42.88h-22.4zM669.44 596.48v-42.88h22.4v42.88h-22.4zM714.24 596.48v-42.88h21.76v30.72h0.64v12.16h-22.4z" />
<glyph unicode="&#xe913;" glyph-name="dispensador-toallas-sanitarias" d="M572.16 527.36l5.12-77.44c0-0.64 0-1.28 0.64-1.92l-5.76 79.36zM846.080 896h-668.16c-42.24 0-76.8-32.64-76.8-72.96v-749.44c0-40.32 34.56-72.96 76.8-72.96h668.16c42.24 0 76.8 32.64 76.8 72.96v749.44c0 40.32-34.56 72.96-76.8 72.96zM878.080 72.96c0-17.28-14.080-30.72-32-30.72h-668.16c-17.92 0-32 13.44-32 30.72v750.080c0 17.28 14.080 30.72 32 30.72h668.16c17.92 0 32-13.44 32-30.72v-750.080zM624.64 647.68l3.2 42.88c0 46.080-39.040 83.2-87.68 83.2h-56.32c-48.64 0-88.32-37.12-88.32-84.48l2.56-42.24c-10.24-2.56-19.84-8.32-28.16-16-14.080-12.8-21.76-30.72-21.12-49.28v-81.92c0-30.72 21.12-56.96 51.2-65.92l-4.48-67.2c0-46.080 39.68-83.2 88.32-83.2h56.32c48.64 0 87.68 37.12 87.68 85.12l-4.48 64.64c30.080 8.32 51.84 35.2 51.84 66.56v81.92c0 30.080-21.12 56.96-50.56 65.92zM402.56 480c-5.76 5.12-8.96 12.16-8.96 19.84v81.92c0 7.040 2.56 14.080 7.68 19.2l4.48-70.4-3.2-50.56zM540.16 326.4h-56.32c-23.68 0-43.52 18.56-43.52 39.68l5.12 84.48 5.12 80-6.4 101.76-3.84 58.24c0 22.4 19.84 40.96 43.52 40.96h56.32c23.68 0 42.88-18.56 42.88-39.68l-3.84-60.16-7.040-104.32 5.76-79.36 5.76-81.28c0-22.4-19.84-40.32-43.52-40.32zM630.4 499.84c0-7.68-3.84-15.36-10.24-20.48l-3.2 48 5.12 73.6c5.12-5.12 8.32-11.52 8.32-19.2v-81.92zM776.32 219.52h-528c-12.8 0-23.040-9.6-23.040-21.12v-65.28c0-40.96 35.2-74.24 78.080-74.24h417.28c42.88 0 77.44 33.28 78.080 74.24v65.28c0 11.52-10.24 21.12-22.4 21.12zM270.72 133.12v44.16h69.12v-75.52h-36.48c-17.92-0.64-32.64 13.44-32.64 31.36zM753.92 133.12c0-17.92-15.36-32-33.28-32h-336v75.52h369.28v-43.52z" />
<glyph unicode="&#xe914;" glyph-name="dispensador-spray" d="M624 0h-224c-38.4 0-69.76 30.080-69.76 66.56v762.88c-0.64 36.48 30.72 66.56 69.76 66.56h224.64c38.4 0 69.76-30.080 69.76-66.56v-762.88c0-36.48-32-66.56-70.4-66.56zM400 853.12c-14.080 0-24.96-10.88-24.96-24.32v-762.88c0-13.44 11.52-24.32 24.96-24.32h224.64c14.080 0 25.6 10.88 25.6 23.68v764.16c0 13.44-11.52 24.32-25.6 24.32h-224.64zM512 396.8c-48.64 0-87.68 37.76-87.68 83.84v25.6l5.76 24.32c2.56 6.4 7.040 11.52 11.52 16 11.52 10.88 26.24 16.64 42.24 16.64h56.96c16 0 30.72-5.76 42.24-16.64 4.48-5.12 7.68-9.6 10.88-13.44l3.2-6.4c1.28-5.76 3.2-12.16 3.2-19.84v-26.88c-0.64-46.72-39.68-83.2-88.32-83.2zM471.040 513.92l-2.56-11.52 0.64-22.4c0-22.4 19.2-40.96 42.88-40.96 24.32 0 42.88 17.92 42.88 40.96v26.24c0 1.28-0.64 3.84-1.28 5.76-1.28 2.56-2.56 4.48-4.48 6.4-1.28 0.64-4.48 1.92-8.32 1.92h-56.96c-3.84 0-7.68-1.28-10.24-3.84-1.28-0.64-1.92-1.92-2.56-2.56zM564.48 529.28c-6.4 6.4-14.72 9.6-24.32 9.6h-56.32c-8.96 0-17.28-3.2-23.68-9.6l-5.12 4.48c7.040 7.68 17.92 12.16 28.8 12.16h56.96c11.52 0 21.12-3.84 28.8-12.16l-5.12-4.48zM591.36 596.48h-158.72c-22.4 0-40.32 17.28-40.32 38.4v55.68c0 21.12 17.92 38.4 40.32 38.4h158.72c22.4 0 40.32-17.28 40.32-38.4v-56.32c-0.64-21.12-18.56-37.76-40.32-37.76zM437.12 638.72h149.12v47.36h-149.12v-47.36zM608.64 78.080h-193.28c-12.16 0-22.4 9.6-22.4 21.12s10.24 21.12 22.4 21.12h193.92c12.16 0 22.4-9.6 22.4-21.12s-10.24-21.12-23.040-21.12z" />
<glyph unicode="&#xe915;" glyph-name="espejos" d="M512 2.56c-245.76 0-446.080 199.68-446.080 445.44s200.32 446.080 446.080 446.080 445.44-200.32 445.44-446.080-199.68-445.44-445.44-445.44zM512 848c-220.8 0-400-179.2-400-400s179.2-400 400-400 400 179.2 400 400-179.2 400-400 400zM302.080 343.040c-5.76 0-11.52 1.92-16 6.4-8.96 8.96-8.96 23.68 0 32.64l149.12 149.12c8.96 8.96 23.68 8.96 32.64 0s8.96-23.68 0-32.64l-149.76-149.12c-4.48-4.48-10.24-6.4-16-6.4zM387.2 257.92c-5.76 0-11.52 1.92-16 6.4-8.96 8.96-8.96 23.68 0 32.64l149.12 149.12c8.96 8.96 23.68 8.96 32.64 0s8.96-23.68 0-32.64l-149.76-149.12c-4.48-4.48-10.24-6.4-16-6.4z" />
<glyph unicode="&#xe916;" glyph-name="fluxometros" d="M635.52 0h-230.4c-12.16 0-22.4 9.6-22.4 21.12v55.68c0 11.52 10.24 21.12 22.4 21.12h26.88c3.84 6.4 10.88 10.88 19.2 10.88h0.64l-0.64 356.48c-12.16 0-22.4 9.6-22.4 21.12v75.52l-5.76 3.2h-87.040c-12.16 0-22.4 9.6-22.4 21.12v78.080c0 11.52 10.24 21.12 22.4 21.12h69.76v67.2l-24.32 15.36c-5.12 3.84-8.96 8.96-9.6 14.72-0.64 3.84-6.4 40.32 17.28 66.56 7.040 8.32 19.84 17.92 39.68 22.4v3.2c0 11.52 10.24 21.12 22.4 21.12h115.2c12.16 0 22.4-9.6 22.4-21.12v-1.28c12.16-1.92 26.88-6.4 40.32-16.64 19.2-15.36 28.8-39.040 28.8-70.4v-12.16h90.88c19.84 27.52 53.12 44.16 88.96 44.16 60.16 0 108.8-46.72 108.8-104.32s-48.64-104.32-108.8-104.32c-35.84 0-68.48 16.64-88.96 44.16h-160v-81.92c6.4-3.84 11.52-10.88 11.52-19.2v-66.56c0-11.52-9.6-21.12-22.4-21.12h-0.64l1.28-356.48c8.32 0 15.36-4.48 19.2-10.88h38.4c12.16 0 22.4-9.6 22.4-21.12v-55.040c-0.64-12.16-10.24-21.76-23.040-21.76zM427.52 42.88h186.24v12.8h-35.84c-8.32 0-16 4.48-19.2 10.88h-3.84c-12.16 0-22.4 9.6-22.4 21.12v398.72c0 11.52 10.24 21.12 22.4 21.12h0.64v26.88c-6.4 3.84-11.52 10.88-11.52 18.56v122.24c0 11.52 10.24 21.12 22.4 21.12h194.56c8.32 0 16-4.48 19.84-11.52 11.52-20.48 33.28-33.28 56.96-33.28 35.2 0 64 27.52 64 62.080 0 33.92-28.8 61.44-64 61.44-23.68 0-45.44-12.8-56.96-32.64-3.84-7.040-11.52-11.52-19.84-11.52h-125.44c-12.16 0-22.4 9.6-22.4 21.12v33.92c0 17.92-4.48 30.72-12.8 37.76-11.52 10.24-30.080 7.68-30.080 7.68-6.4-1.28-13.44 0.64-17.92 5.12-5.12 3.84-7.68 9.6-7.68 16v0.64l-71.040-0.64c0-11.52-10.24-21.12-22.4-21.12-13.44 0-23.040-3.2-28.16-9.6-5.76-6.4-7.68-16.64-7.68-23.68l25.6-16c6.4-3.84 9.6-10.88 9.6-17.92v-99.84c0-11.52-10.24-21.12-22.4-21.12h-69.76v-35.2h69.76c3.2 0 7.040-0.64 10.24-2.56l23.040-10.88c7.040-3.84 12.16-10.88 12.16-19.2l0.64-67.2c12.16 0 22.4-9.6 22.4-21.12v-398.72c0-11.52-10.24-21.12-22.4-21.12h-3.84c-3.84-6.4-10.88-10.88-19.2-10.88h-23.68v-13.44zM307.84 608h-203.52c-14.080 0-26.24 10.24-26.24 22.4s11.52 22.4 26.24 22.4h204.16c14.080 0 26.24-10.24 26.24-22.4s-12.16-22.4-26.88-22.4z" />
<glyph unicode="&#xe917;" glyph-name="griferia" d="M816.64 710.4h-371.2v49.92h180.48c12.16 0 22.4 9.6 22.4 22.4v81.28c0 12.16-10.24 22.4-22.4 22.4h-418.56c-12.16 0-22.4-10.24-22.4-22.4v-832c0-12.16 10.24-22.4 22.4-22.4h215.68c12.16 0 22.4 10.24 22.4 22.4v539.52h371.2c12.16 0 22.4 10.24 22.4 22.4v94.080c0 12.8-10.24 22.4-22.4 22.4zM445.44 841.6h158.080v-36.48h-158.080v36.48zM400.64 54.4h-170.88v611.2h170.88v-611.2zM400.64 710.4h-170.88v131.2h170.88v-131.2zM794.24 616.32h-348.8v49.28h348.8v-49.28zM780.8 361.6c-32 0-58.24 26.24-58.24 58.24 0 14.72 5.76 28.8 15.36 39.68l21.12 47.36c3.84 7.68 11.52 13.44 20.48 13.44 8.96 0.64 16.64-5.12 20.48-12.8l21.76-46.72c10.88-10.88 16.64-25.6 16.64-40.96 0.64-32-25.6-58.24-57.6-58.24zM780.8 443.52l-3.2-6.4c-1.28-2.56-3.2-5.76-5.76-7.68-2.56-2.56-3.84-5.76-3.84-9.6 0-14.72 26.24-14.72 26.24 0 0 3.84-1.92 7.68-4.48 10.24-2.56 1.92-4.48 4.48-5.76 7.68l-3.2 5.76z" />
<glyph unicode="&#xe918;" glyph-name="inodoros" d="M858.88 567.68l-5.12 2.56h-387.2l-5.76-4.48c-1.92-1.28-31.36-24.96-39.68-70.4h-30.72l-25.6 339.84c-2.56 34.56-32.64 60.8-67.84 60.8h-130.56c-37.12 0-67.2-28.8-67.2-65.28v-410.88h82.56l165.76-158.72-53.12-261.12h526.080l-47.36 216.96c84.48 29.44 138.88 93.44 149.76 177.28 10.24 73.6-17.28 145.92-64 173.44zM483.84 526.080h356.48c9.6-6.4 17.92-17.28 24.32-30.72h-397.44c3.84 15.36 11.52 25.6 16.64 30.72zM144 830.72c0 11.52 10.24 21.12 22.4 21.12h130.56c12.16 0 22.4-8.96 23.040-19.84l1.92-21.76h-177.92v20.48zM144 464.64v302.080h181.12l23.040-302.080h-204.16zM878.72 400c-4.48-33.92-27.52-116.48-137.6-146.56l-20.48-5.76 44.8-203.52h-416l46.72 232.32-149.76 144h149.76l-2.56 30.72h484.48c2.56-16 3.2-32.64 0.64-51.2z" />
<glyph unicode="&#xe919;" glyph-name="jaboneras" d="M392.32 353.28c0-1.28-0.64-2.56-1.28-3.2-3.2-3.84-6.4-7.68-9.6-10.88 3.2 3.2 6.4 7.040 8.96 10.88 0.64 0.64 1.28 1.92 1.92 3.2zM822.4 384.64h-20.48c-0.64 44.8-35.84 80.64-80.64 80.64-7.68 0-16-1.28-23.040-3.84-0.64 24.96-10.88 47.36-26.88 63.36-17.28 17.92-40.96 28.16-65.92 28.16-10.24 0-19.84-1.92-30.080-5.12-17.28 49.28-63.36 83.84-115.84 83.84-60.8 0-111.36-45.44-121.6-104.32-10.24 3.2-21.12 4.48-32.64 4.48-61.44 0-112-51.2-112-114.56 0-11.52 1.28-21.76 5.12-32.64-74.88-1.92-134.4-64.64-134.4-140.8v-103.040c0-78.080 61.44-140.8 137.6-140.8h620.8c76.16 0 137.6 62.72 137.6 140.8v103.040c0 77.44-61.44 140.8-137.6 140.8zM759.040 384c0-4.48-1.28-9.6-3.2-13.44-9.6-25.6-46.72-28.8-63.36-10.24-2.56 3.2-4.48 6.4-5.76 10.24-1.92 4.48-2.56 8.96-2.56 13.44 0 21.12 17.28 37.76 37.12 37.76 20.48 0 37.76-16.64 37.76-37.76zM305.28 488.32c14.72 0 28.8-4.48 40.96-12.8 6.4-5.12 16-5.76 23.040-1.28s11.52 12.8 10.24 21.76c-0.64 2.56-0.64 6.4-0.64 10.24 0 45.44 35.84 81.92 80.64 81.92 41.6 0 76.16-33.28 80-74.88 0.64-8.32 5.76-14.72 12.8-17.92s16-2.56 21.76 2.56c8.32 7.68 19.84 11.52 31.36 11.52 13.44 0 26.24-5.12 35.84-14.72 9.6-10.24 14.72-22.4 14.72-36.48 0-28.8-22.4-51.84-50.56-51.84-22.4 0-42.88 15.36-48.64 37.76-1.92 7.68-7.68 12.8-16 14.72-7.68 1.92-15.36-0.64-21.12-7.040-26.88-31.36-78.080-35.84-110.080-9.6-6.4 5.12-16 5.76-23.040 1.92-8.32-3.84-12.16-12.8-11.52-21.76l0.64-5.76c0-14.72-5.12-29.44-13.44-41.6-26.24-36.48-86.4-36.48-112.64 0-8.96 12.8-13.44 26.88-13.44 42.24 0 39.040 30.72 71.040 69.12 71.040zM201.6 341.12h19.84c5.12-5.76 10.88-10.88 16-14.72 0.64-1.28 1.92-1.92 2.56-1.92 42.88-29.44 104.96-24.96 143.36 10.88 1.92 0.64 3.2 1.92 4.48 3.84 3.2 3.2 6.4 7.040 8.32 10.88 0.64 0.64 1.28 1.92 1.92 3.2 1.28 1.28 1.92 2.56 1.92 3.2 6.4 10.24 11.52 21.76 14.72 33.28 36.48-14.72 81.92-9.6 114.56 13.44 16.64-25.6 45.44-40.96 76.16-40.96 13.44 0 25.6 2.56 37.12 7.68 1.92 1.28 4.48 2.56 6.4 3.84-3.84-5.76-4.48-12.16-1.92-18.56 11.52-31.36 42.24-52.48 74.24-52.48 4.48 0 8.32 0.64 12.16 1.28 3.84 0 7.040 1.28 10.88 2.56 2.56 0 4.48 1.28 6.4 2.56 3.2 1.28 6.4 2.56 8.96 4.48 3.2 1.28 6.4 3.2 8.32 5.76 2.56 1.92 5.12 3.84 7.040 6.4 5.76 5.12 9.6 10.24 12.8 16h33.28c26.24 0 49.92-10.88 67.2-28.8-9.6 1.92-19.84-4.48-23.040-14.080-11.52-33.92-42.88-56.32-78.080-56.32h-551.040c-34.56 0-66.56 22.4-77.44 56.32-3.84 10.88-14.080 16-23.68 14.080 16.64 17.28 40.32 28.16 66.56 28.16zM917.12 140.8c0-53.76-42.88-97.28-95.36-97.28h-620.8c-52.48 0-95.36 43.52-95.36 97.28v103.040c0 16 3.84 31.36 10.88 44.16-0.64-1.28 0-3.2 0.64-4.48 17.28-51.2 64.64-85.12 117.76-85.12h552.32c53.12 0 100.48 33.92 118.4 85.12 0.64 1.28 0.64 2.56 0.64 3.84 6.4-12.8 10.24-28.16 10.24-43.52v-103.040zM655.36 373.76c-1.92-1.28-4.48-2.56-6.4-3.84 1.28-5.12 2.56-10.24 4.48-14.72-2.56 5.76-1.92 12.8 1.92 18.56zM714.88 772.48c0-32.872-27.508-59.52-61.44-59.52s-61.44 26.648-61.44 59.52c0 32.872 27.508 59.52 61.44 59.52s61.44-26.648 61.44-59.52zM785.92 631.68c0-22.268-18.338-40.32-40.96-40.32s-40.96 18.052-40.96 40.32c0 22.268 18.338 40.32 40.96 40.32s40.96-18.052 40.96-40.32zM864 855.68c0-22.268-18.338-40.32-40.96-40.32s-40.96 18.052-40.96 40.32c0 22.268 18.338 40.32 40.96 40.32s40.96-18.052 40.96-40.32z" />
<glyph unicode="&#xe91a;" glyph-name="lavabos" d="M948.48 463.36c-8.32 10.88-21.12 17.28-34.56 17.28h-380.8v113.28c0 17.92 14.080 32 30.080 32 16.64 0 30.080-13.44 30.080-30.72 0.64-12.16 10.24-22.4 22.4-21.76 11.52 0.64 21.12 10.88 20.48 23.68-1.28 40.96-33.28 73.6-72.96 73.6s-72.32-34.56-72.32-76.8v-113.28h-380.8c-13.44 0-26.24-6.4-34.56-17.28-8.96-10.24-12.8-24.96-10.88-38.4 15.36-113.92 109.44-199.68 218.88-199.68h456.96c59.52 0 114.56 24.32 156.16 68.48 34.56 35.2 56.32 80.64 62.72 131.2 1.92 13.44-1.92 28.16-10.88 38.4zM866.56 325.12c-33.28-35.2-78.080-55.040-126.080-55.040h-456.96c-88.32 0-164.48 69.12-177.28 160.64l3.84 5.12h803.84l3.84-5.12c-5.76-40.32-23.68-76.8-51.2-105.6z" />
<glyph unicode="&#xe91b;" glyph-name="mamparas" d="M314.24 454.4c-11.52 0-21.12 10.24-21.12 22.4v48c0 12.16 9.6 22.4 21.12 22.4s21.76-10.24 21.76-22.4v-48c0-12.16-9.6-22.4-21.76-22.4zM599.040 454.4c-11.52 0-21.12 10.24-21.12 22.4v48c0 12.16 9.6 22.4 21.12 22.4s21.12-10.24 21.12-22.4v-48c0-12.16-9.6-22.4-21.12-22.4zM938.88 784.64h-853.76c-11.52 0-21.12-10.24-21.12-22.4v-628.48c0-12.16 9.6-22.4 21.12-22.4s21.12 10.24 21.12 22.4v76.16h241.92v-76.16c0-12.16 8.96-22.4 21.12-22.4 11.52 0 21.12 10.24 21.12 22.4v76.16h241.28v-76.16c0-12.16 9.6-22.4 21.12-22.4 12.16 0 21.12 10.24 21.12 22.4v76.16h241.92v-76.16c0-12.16 9.6-22.4 21.12-22.4s21.12 10.24 21.12 22.4v628.48c1.92 12.16-7.68 22.4-19.2 22.4zM106.88 254.72v485.12h241.92v-485.12h-241.92zM632.96 254.72h-241.92v485.12h241.28v-485.12zM917.12 254.72h-241.92v485.12h241.92v-485.12zM883.2 454.4c-11.52 0-21.12 10.24-21.12 22.4v48c0 12.16 9.6 22.4 21.12 22.4s21.12-10.24 21.12-22.4v-48c0-12.16-8.96-22.4-21.12-22.4z" />
<glyph unicode="&#xe91c;" glyph-name="mingitorios" d="M704.64 672.64h-122.24v223.36h-140.8v-223.36h-122.24c-55.68 0-100.48-46.080-100.48-103.040v-270.080c0-165.12 131.2-299.52 293.12-299.52s293.12 134.4 293.12 299.52v270.080c0 56.96-44.8 103.040-100.48 103.040zM483.2 853.12h57.6v-23.68h-57.6v23.68zM483.2 787.2h57.6v-114.56h-57.6v114.56zM763.52 299.52c0-141.44-112.64-256.64-251.52-256.64s-251.52 115.2-251.52 256.64v270.080c0 33.28 26.24 60.8 58.88 60.8h385.28c32.64 0 58.88-27.52 58.88-60.8v-270.080zM527.36 176.64h-30.72c-110.72 0-200.32 92.16-200.32 204.8v145.28c0 41.6 33.28 75.52 73.6 75.52h284.16c40.32 0 73.6-33.92 73.6-75.52v-145.28c0-113.28-89.6-204.8-200.32-204.8zM369.92 559.36c-17.28 0-32-14.72-32-32.64v-145.28c0-89.6 71.040-161.92 158.72-161.92h30.72c87.68 0 158.72 72.96 158.72 161.92v145.28c0 17.92-14.080 32.64-32 32.64h-284.16zM483.2 830.080v-0.64h57.6v0.64h-57.6z" />
<glyph unicode="&#xe91d;" glyph-name="muebles" d="M768 521.6c-5.76-5.76-10.88-12.16-17.28-17.92 6.4 5.12 12.16 10.88 17.92 17.28 3.2 3.2 5.76 5.76 7.68 8.96-1.92-1.92-5.12-5.76-8.32-8.32zM938.88 607.36h-117.76c11.52 30.72 17.92 64 17.92 97.28 0 12.8-9.6 22.4-21.12 22.4h-611.2c-11.52 0-21.12-9.6-21.12-23.040 0-33.92 6.4-66.56 17.92-96.64h-118.4c-11.52 0-21.12-10.24-21.12-23.040v-468.48c0-13.44 9.6-23.040 21.12-23.040h58.88v-69.76c0-12.8 9.6-23.040 21.12-23.040h692.48c11.52 0 21.12 10.24 21.12 23.040v69.76h58.88c11.52 0 21.12 9.6 21.12 23.040v468.48c1.28 12.8-8.32 23.040-19.84 23.040zM512 681.6h282.88c-3.2-30.080-12.16-59.52-26.88-85.12-7.68-15.36-18.56-29.44-30.080-42.24-37.12-40.32-86.4-62.72-139.52-62.72h-172.8c-69.76 0-134.4 40.32-169.6 104.96-14.72 25.6-23.68 54.4-26.88 85.12h282.88zM106.88 138.88v422.4h119.040c1.28-1.92 2.56-3.84 4.48-5.76 3.2-5.76 6.4-10.24 10.88-16 5.12-7.68 10.88-14.72 17.92-21.12 6.4-7.040 12.8-13.44 19.84-18.56 0.64-1.28 1.92-1.92 2.56-2.56 6.4-5.12 12.8-9.6 19.2-14.080 10.88-7.040 21.76-14.080 33.28-18.56 7.040-3.2 14.72-6.4 22.4-8.32 21.76-7.040 44.8-10.88 68.48-10.88h65.28v-306.56h-383.36zM837.12 46.080h-650.24v46.72h649.6v-46.72zM917.12 138.88h-384v306.56h65.28c56.32 0 108.8 20.48 152.32 58.88 6.4 5.76 11.52 12.16 17.28 17.92 3.2 2.56 6.4 5.76 8.32 8.32 2.56 3.2 5.12 6.4 7.040 9.6 3.84 5.12 7.040 9.6 10.24 15.36 1.92 1.92 3.2 3.84 4.48 5.76h119.040v-422.4zM457.6 229.12c-11.52 0-21.12 10.24-21.12 23.040v128.64c0 12.8 9.6 23.040 21.12 23.040s21.12-10.24 21.12-23.040v-129.28c0-12.16-9.6-22.4-21.12-22.4zM577.92 229.12c-11.52 0-21.12 10.24-21.12 23.040v128.64c0 12.8 9.6 23.040 21.12 23.040s21.12-10.24 21.12-23.040v-129.28c0-12.16-8.96-22.4-21.12-22.4zM533.12 796.16v-68.48h-42.24v68.48c0 33.92-18.56 53.76-35.84 53.76-20.48 0-33.92-26.24-33.92-67.84-0.64-12.8-9.6-22.4-21.12-22.4h-1.28c-11.52 0-21.12 10.24-20.48 23.040 0 78.080 38.4 113.28 76.16 113.28 0 0 0 0 0.64 0 38.4-0.64 78.080-37.76 78.080-99.84z" />
<glyph unicode="&#xe91e;" glyph-name="perchas" d="M887.040 388.48c-40.32 0-72.96-34.56-72.96-76.8 0-4.48 0.64-8.32 1.28-12.8 0-2.56 0.64-5.76 1.92-8.32 0-1.92 0.64-3.84 1.92-5.76 0.64-2.56 1.92-4.48 3.2-7.040 2.56-5.76 6.4-11.52 9.6-16 1.92-1.92 3.2-3.84 5.12-5.12 4.48-4.48 9.6-8.96 15.36-11.52 4.48-3.2 8.32-5.12 12.8-6.4 0.64-0.64 0.64-0.64 1.28-0.64v-27.52c0-67.84-53.12-123.52-117.76-123.52s-117.76 55.68-117.76 123.52v157.44c76.16 43.52 128 128.64 128 226.56 0 142.72-110.080 259.2-246.4 259.2s-247.040-116.48-247.040-259.2c0-97.92 51.84-183.040 128-226.56v-157.44c0-67.84-53.12-123.52-117.76-123.52s-117.76 55.68-117.76 123.52v27.52c10.88 3.84 21.12 10.24 29.44 18.56 1.92 1.28 3.2 3.2 5.12 5.12 3.84 4.48 7.040 10.24 9.6 16 1.28 2.56 2.56 4.48 3.2 7.040 1.28 1.92 1.92 3.84 1.92 5.76 1.28 2.56 1.92 5.76 1.92 8.32 0.64 4.48 1.28 8.32 1.28 12.8 0 42.24-32.64 76.8-72.96 76.8-40.96 0-73.6-34.56-73.6-76.8 0-34.56 21.76-64 51.84-73.6v-27.52c0-92.8 71.68-168.32 160-168.32s160 75.52 160 168.32v138.24c24.32-8.32 49.28-12.8 76.16-12.8s52.48 4.48 76.16 12.8v-138.24c0-92.8 71.040-168.32 160-168.32s160 75.52 160 168.32v27.52c30.080 9.6 51.84 39.040 51.84 73.6 0 42.24-32.64 76.8-72.96 76.8zM106.88 311.68c0 17.28 13.44 32 30.72 32 10.24 0 19.2-5.12 24.96-14.080 0.64-1.28 1.92-3.2 2.56-5.76 1.92-3.84 2.56-7.68 2.56-12.16s-0.64-8.96-2.56-12.8c-1.28-3.84-3.84-7.040-6.4-9.6-5.12-6.4-12.8-9.6-21.12-9.6-17.28 0-30.72 14.080-30.72 32zM588.16 396.16c-23.68-9.6-49.28-15.36-76.16-15.36s-52.48 5.12-75.52 15.36v103.68c19.84-18.56 46.080-29.44 75.52-29.44s56.32 11.52 76.16 30.080v-104.32zM512 515.2c-42.24 0-75.52 35.84-75.52 79.36 0 44.16 33.28 80 75.52 80s76.16-35.84 76.16-80c0-43.52-33.92-79.36-76.16-79.36zM512 719.36c-65.28 0-118.4-55.68-118.4-124.8v-174.080c-51.84 39.040-85.12 102.4-85.12 174.080 0 118.4 91.52 214.4 203.52 214.4s203.52-96 203.52-214.4c0-71.68-33.28-135.040-85.12-174.080v174.080c0 69.12-53.12 124.8-118.4 124.8zM887.040 279.68c-3.2 0-6.4 0.64-8.96 1.92-0.64 0-0.64 0-1.28 0-1.28 0-1.92 0.64-3.2 1.28-3.2 1.28-6.4 3.84-7.68 6.4-3.2 2.56-5.76 5.76-6.4 9.6-1.92 3.84-2.56 8.32-2.56 12.8s0.64 8.32 2.56 12.16c0.64 2.56 1.92 4.48 3.2 5.76 1.28 1.92 2.56 3.2 3.84 4.48 1.28 1.92 2.56 3.2 4.48 3.84 0.64 0.64 0.64 0.64 1.28 0.64 1.92 1.28 3.84 2.56 5.76 2.56 1.28 1.28 2.56 1.92 4.48 1.92 1.92 0.64 3.84 0.64 6.4 0.64 17.28 0 30.72-14.72 30.72-32-2.56-17.92-16-32-32.64-32z" />
<glyph unicode="&#xe91f;" glyph-name="portacepillos" d="M723.2 510.72h-194.56v30.72c0 3.2-0.64 6.4-2.56 8.32l-42.24 88.96v21.12h81.92c12.16 0 22.4 9.6 22.4 21.76 0 11.52-10.24 21.76-22.4 21.76h-81.92v19.2h81.92c12.16 0 22.4 9.6 22.4 21.76s-10.24 21.76-22.4 21.76h-81.92v18.56h81.92c12.16 0 22.4 9.6 22.4 21.76s-10.24 21.76-22.4 21.76h-81.92v24.96h78.72c12.8 0 22.4 9.6 22.4 21.76s-9.6 21.12-22.4 21.12h-101.12c-12.8 0-22.4-8.96-22.4-21.76v-240c0-3.2 0.64-6.4 1.92-8.96l42.88-88.96v-25.6h-183.040c-12.8 0-22.4-9.6-22.4-21.76v-467.84c0-11.52 9.6-21.12 22.4-21.12h422.4c12.16 0 22.4 9.6 22.4 21.76v467.2c0 11.52-10.24 21.76-22.4 21.76zM700.8 42.88h-377.6v10.24h377.6v-10.24zM700.8 96.64h-377.6v19.84h377.6v-19.84zM700.8 158.72h-377.6v309.12h377.6v-309.12z" />
<glyph unicode="&#xe920;" glyph-name="portacepillos-inodoro" d="M650.88 319.36l-7.040 7.68h-117.12v547.2c0 12.16-10.24 21.76-22.4 21.76-12.8 0-23.040-9.6-23.040-21.76v-547.2h-117.12l-7.040-7.68c-42.88-46.080-67.84-111.36-67.84-179.2v-76.8c0-35.2 26.24-63.36 58.24-63.36h312.96c32 0 57.6 28.16 57.6 63.36v76.8c0 67.84-24.32 133.12-67.2 179.2zM334.72 140.16c0 53.76 17.92 105.6 49.92 143.36h238.72c32-37.76 50.56-89.6 50.56-143.36v-41.6h-339.2v41.6zM660.48 42.88h-312.96c-5.12 0-9.6 5.12-11.52 12.8h336.64c-1.92-7.68-7.040-12.8-12.16-12.8z" />
<glyph unicode="&#xe921;" glyph-name="portapapel" d="M872.32 637.44v167.68c0 12.16-9.6 21.12-21.76 21.12h-159.36c-7.68 37.12-32 63.36-61.44 67.84-2.56 1.28-5.12 1.92-8.32 1.92h-170.88c-25.6 0-50.56-9.6-69.12-28.16-17.92-17.92-28.16-42.24-28.16-67.84 0-52.48 43.52-96 97.28-96h170.88c1.92 0 3.2 0 4.48 1.28 1.92-0.64 3.2 0 3.84 0.64 0.64 0 0.64 0 0.64 0 32.64 5.76 58.24 35.84 63.36 78.080h135.68v-103.040c-15.36 9.6-32 15.36-49.92 15.36h-2.56c-0.64 0-0.64 0-1.28 0h-492.8c-103.68 0-188.16-83.2-188.16-185.6v-488.96c0-11.52 9.6-21.12 21.76-21.12h535.68c11.52 0 21.76 9.6 21.76 21.12v119.040h105.6c83.84 0 149.76 121.6 149.76 277.76 0 89.6-22.4 168.32-56.96 218.88zM549.12 783.36c1.92-13.44 5.76-25.6 10.88-36.48h-109.44c-29.44 0-54.4 23.68-54.4 53.76 0 14.080 5.76 27.52 16 37.12 9.6 10.24 23.68 16 38.4 16h109.44c-8.32-15.36-12.16-33.92-12.16-53.76 0-5.76 0.64-11.52 1.28-16.64zM621.44 746.88c-1.92 0-3.84 0.64-5.76 1.28-3.2 0.64-7.040 3.2-10.24 7.040-3.84 3.84-7.040 8.32-8.96 14.72-1.92 5.76-3.84 11.52-5.12 19.2-0.64 2.56-0.64 7.040-0.64 10.88 0 31.36 16 53.76 30.72 53.76 9.6 0 20.48-10.24 25.6-26.88h-25.6c-11.52 0-21.76-8.96-21.76-21.12 0-11.52 9.6-21.12 21.76-21.12h28.8c-4.48-23.040-17.28-37.76-28.8-37.76zM673.28 614.4c-3.2-6.4-6.4-12.16-8.32-18.56-3.2-6.4-6.4-14.080-8.32-21.12-5.76-14.72-9.6-30.72-13.44-46.72-1.92-7.68-3.2-15.36-4.48-23.040-1.28-1.28-1.28-3.2-1.92-5.12h-67.84c-11.52 0-21.76-8.96-21.76-21.12 0-11.52 9.6-21.12 21.76-21.12h62.72c-0.64-12.16-1.28-24.96-1.28-38.4v-376.32h-492.8v414.080h75.52c11.52 0 21.76 9.6 21.76 21.12 0 12.16-9.6 21.12-21.76 21.12h-74.88v10.88c0 79.36 65.28 143.36 145.28 143.36h416c-9.6-10.88-18.56-24.32-26.24-39.040zM673.92 183.68v37.76c7.68-14.72 16-26.88 24.96-37.76h-24.96zM779.52 183.68c-49.92 0-105.6 96.64-105.6 235.52 0 69.76 14.080 128 34.56 169.6s46.080 65.28 71.040 65.28h0.64c16.64 0 33.92-10.88 49.28-30.080v-164.48c-9.6 24.96-28.16 40.96-51.2 40.96-34.56 0-59.52-37.12-59.52-86.4s24.96-86.4 59.52-86.4c29.44 0 51.84 26.88 57.6 65.28h14.72c11.52 0 21.76 9.6 21.76 21.12v115.2c8.32-32 13.44-69.76 13.44-110.080 0-138.88-55.68-235.52-106.24-235.52zM778.24 434.56c-5.76 0-10.88-2.56-15.36-6.4 3.2 19.2 11.52 28.8 15.36 28.8 3.2 0 10.24-7.68 14.72-22.4h-14.72zM792.96 391.68c-4.48-14.72-11.52-22.4-14.72-22.4-3.84 0-12.16 10.24-15.36 28.8 4.48-3.84 9.6-6.4 15.36-6.4h14.72zM375.040 457.6h-90.88c-12.16 0-21.76 9.6-21.76 21.12s9.6 21.12 21.76 21.12h90.88c12.16 0 21.76-9.6 21.76-21.12s-10.24-21.12-21.76-21.12zM509.44 457.6h-78.080c-12.16 0-21.76 9.6-21.76 21.12s9.6 21.12 21.76 21.12h78.72c12.16 0 21.76-9.6 21.76-21.12s-10.24-21.12-22.4-21.12z" />
<glyph unicode="&#xe922;" glyph-name="portavasos" d="M915.2 197.12h-17.28c2.56 10.88 3.2 21.76 3.2 33.28v392.32c0 12.16-8.96 21.12-21.12 21.12h-139.52v96h72.96c11.52 0 21.12 9.6 21.12 21.12s-9.6 21.12-21.12 21.12h-72.96v32c0 11.52-8.96 21.12-21.12 21.12h-167.68c-11.52 0-21.12-9.6-21.12-21.12v-171.52h-139.52c-11.52 0-21.12-8.96-21.12-21.12v-90.88h-232.32c-11.52 0-21.12-9.6-21.12-21.12v-269.44c0-15.36 1.92-30.080 5.76-44.8h-13.44c-12.16 0-21.12-8.96-21.12-21.12v-57.6c-0.64-63.36 53.12-116.48 119.040-116.48h611.2c65.92 0 119.040 53.12 119.040 118.4v57.6c0 11.52-9.6 21.12-21.76 21.12zM572.8 794.24h124.8v-145.92h-124.8v145.92zM412.16 601.6h446.72v-371.2c0-11.52-1.28-22.4-3.84-33.28h-439.040c-0.64 2.56-1.28 5.12-1.28 7.040 0 1.28-0.64 2.56-0.64 3.2-1.28 7.68-1.92 15.36-1.92 23.040v371.2zM158.72 489.6h211.2v-259.2c0-11.52 1.28-22.4 3.2-33.28h-207.36c-5.12 14.72-7.040 29.44-7.040 44.8v247.68zM894.080 118.4c0-41.6-34.56-75.52-76.8-75.52h-610.56c-42.24 0-76.8 33.92-76.8 75.52v35.84h764.8v-35.84zM414.72 204.16c0-2.56 0.64-5.12 1.28-7.040h0.64c-0.64 1.92-1.28 4.48-1.92 7.040zM270.72 489.6c-1.92-1.28-3.84-1.28-5.76-1.28s-3.84 0-5.76 1.28h11.52zM245.76 792.32v-17.28h70.4c12.16 0 21.12-8.96 21.12-21.12 0-11.52-8.96-21.12-21.12-21.12h-70.4v-16.64h70.4c12.16 0 21.12-9.6 21.12-21.12s-8.96-21.76-21.12-21.76h-70.4v-21.76l38.4-83.2c1.28-3.2 1.92-6.4 1.92-8.96v-26.88h-42.24v21.76l-38.4 83.84c-1.28 3.2-1.92 6.4-1.92 8.96v227.84c0 11.52 9.6 21.12 21.12 21.12h91.52c12.16 0 21.12-9.6 21.12-21.12s-8.96-21.76-21.12-21.76h-70.4v-18.56h70.4c12.16 0 21.12-9.6 21.12-21.12s-8.96-21.12-21.12-21.12h-70.4z" />
<glyph unicode="&#xe923;" glyph-name="pulsadores" d="M918.4 120.96h-812.8c-26.24 0-47.36 21.12-47.36 47.36v558.72c0 26.24 21.12 47.36 47.36 47.36h812.8c26.24 0 47.36-21.12 47.36-47.36v-558.72c0-12.8-4.48-24.32-13.44-33.28s-21.12-14.080-33.92-14.080zM105.6 730.24l-2.56-561.28 815.36-2.56c0.64 0 1.28 0.64 1.92 0.64l0.64 560.64-815.36 2.56zM519.040 401.92c0-79.882-64.758-144.64-144.64-144.64s-144.64 64.758-144.64 144.64c0 79.882 64.758 144.64 144.64 144.64s144.64-64.758 144.64-144.64zM818.56 349.44c0-51.252-41.548-92.8-92.8-92.8s-92.8 41.548-92.8 92.8c0 51.252 41.548 92.8 92.8 92.8s92.8-41.548 92.8-92.8z" />
<glyph unicode="&#xe924;" glyph-name="refacciones" d="M632.32 315.52c-22.4-1.28-46.080 2.56-69.12 8.96 21.76-5.76 45.44-8.96 69.12-8.96zM631.68 896c-160 0-293.76-121.6-309.76-280.32h-148.48c-11.52 0-21.12-9.6-21.12-21.12v-46.72c0-8.32 5.12-16 12.16-19.2-5.76-3.84-10.24-10.24-10.24-17.92v-69.12h-51.84c-12.16 0-21.12-9.6-21.12-21.12v-216.96c0-11.52 8.96-21.12 21.12-21.12h51.84v-160c0-11.52 9.6-21.12 21.12-21.12h240.64c11.52 0 21.12 9.6 21.12 21.12v160h51.84c12.16 0 21.12 9.6 21.12 21.12v94.72c0.64 0 0.64-0.64 1.28-0.64v-219.52c0-11.52 9.6-21.12 21.12-21.12h193.92c11.52 0 21.12 9.6 21.12 21.12v218.24c117.76 47.36 194.56 161.92 194.56 288.64 0.64 171.52-138.88 311.040-310.4 311.040zM195.2 572.8h198.4v-4.48h-198.4v4.48zM394.88 489.6v-48h-198.4v48h198.4zM394.88 42.88h-198.4v12.16h198.4v-12.16zM394.88 97.28h-198.4v18.56h198.4v-18.56zM394.88 158.72h-198.4v23.040h198.4v-23.040zM467.84 224h-344.32v174.72h344.32v-174.72zM705.92 98.56h-151.040v29.44h151.040v-29.44zM705.92 170.88h-151.040v33.28h151.040v-33.28zM705.92 247.040h-151.040v35.84c6.4-1.92 12.8-3.2 19.2-4.48 5.12-1.28 10.24-1.92 15.36-2.56 14.080-1.92 28.16-3.2 42.88-3.2 13.44 0.64 26.88 1.28 40.32 3.2 11.52 1.28 22.4 3.2 33.92 6.4v-35.2zM720 330.24c-28.16-9.6-57.6-14.72-87.040-14.72h-0.64c-22.4-1.28-46.080 2.56-69.12 8.96-7.68 1.92-15.36 4.48-22.4 7.040-10.24 3.84-20.48 7.68-30.080 12.8v75.52c0 11.52-8.96 21.12-21.12 21.12h-51.84v69.76c0 8.32-5.12 16-12.16 19.2 6.4 3.84 10.24 10.24 10.24 17.92v46.72c0 11.52-9.6 21.12-21.12 21.12h-49.92c15.36 134.4 129.28 237.44 266.24 237.44 148.48 0 268.8-120.96 268.8-268.8 0.64-114.56-72.32-216.32-179.84-254.080z" />
<glyph unicode="&#xe925;" glyph-name="regaderas-higienicas" d="M512 896c-74.24 0-135.040-60.16-135.040-135.040 0-31.36 10.88-60.8 30.72-84.48v-382.72c0-40.32 23.68-76.16 58.24-92.16v-201.6h92.16v200.32c34.56 16.64 58.24 52.48 58.24 92.8v382.72c19.84 23.68 30.72 53.76 30.72 84.48 0 75.52-60.16 135.68-135.040 135.68zM515.2 42.88h-6.4v147.84h6.4v-147.84zM574.080 293.12c0-26.88-17.92-49.92-42.88-57.6-8.32-2.56-22.4-5.12-37.76 0-25.6 7.040-43.52 30.72-43.52 57.6v348.16c5.12-2.56 9.6-5.12 15.36-6.4 3.84-1.28 7.68-3.2 11.52-3.84 6.4-1.92 12.8-3.2 19.2-3.84 5.12-1.28 10.88-1.28 16-1.28 5.76 0 10.88 0 16 1.28 6.4 0.64 13.44 1.92 19.2 3.84 4.48 0.64 8.32 2.56 12.16 3.2 2.56 1.28 5.12 1.92 7.040 3.2 2.56 1.28 5.12 2.56 7.68 3.84v-348.16zM579.84 697.6c-3.84-4.48-8.96-8.32-14.72-12.16-10.24-7.040-21.76-11.52-33.92-13.44-12.8-2.56-24.96-2.56-37.76 0-12.16 1.92-23.68 6.4-33.92 13.44-5.76 3.84-10.88 7.68-14.72 12.16-16 17.28-24.96 39.68-24.96 63.36 0 51.2 41.6 92.8 92.8 92.8s92.8-41.6 92.8-92.8c-0.64-23.68-9.6-46.080-25.6-63.36zM566.4 637.44c3.2 0.64 5.76 1.92 7.68 3.2v0.64c-2.56-1.28-5.12-2.56-7.68-3.84zM533.12 760.96c0-11.664-9.456-21.12-21.12-21.12s-21.12 9.456-21.12 21.12c0 11.664 9.456 21.12 21.12 21.12s21.12-9.456 21.12-21.12zM466.56 760.96c0-11.664-9.456-21.12-21.12-21.12s-21.12 9.456-21.12 21.12c0 11.664 9.456 21.12 21.12 21.12s21.12-9.456 21.12-21.12zM600.32 761.6c0-11.664-9.456-21.12-21.12-21.12s-21.12 9.456-21.12 21.12c0 11.664 9.456 21.12 21.12 21.12s21.12-9.456 21.12-21.12zM533.12 697.6c0-11.664-9.456-21.12-21.12-21.12s-21.12 9.456-21.12 21.12c0 11.664 9.456 21.12 21.12 21.12s21.12-9.456 21.12-21.12zM533.12 823.040c0-11.664-9.456-21.12-21.12-21.12s-21.12 9.456-21.12 21.12c0 11.664 9.456 21.12 21.12 21.12s21.12-9.456 21.12-21.12z" />
<glyph unicode="&#xe926;" glyph-name="regaderas" d="M900.48 354.56c-35.2 35.2-81.92 55.040-131.84 56.96v83.84h-28.8v35.2c0 75.52-48.64 141.44-120.32 163.84-16.64 5.12-33.92 8.32-52.48 8.32h-501.12v-149.76h499.84c13.44 0 24.32-10.88 24.32-24.32v-33.28h-28.8v-83.84h-0.64c-11.52 0-23.040-1.28-34.56-3.2-93.44-16.64-160.64-97.28-160.64-192v-22.4h592.64v22.4c0 51.84-20.48 101.12-57.6 138.24zM565.76 597.76h-455.040v59.52h456.96c13.44 0 26.24-1.92 38.4-5.76 53.12-16.64 88.96-65.28 88.96-120.96v-35.2h-60.16v33.28c0 38.4-30.72 69.12-69.12 69.12zM723.84 450.56v-39.040h-117.76v39.040h117.76zM411.52 238.080c9.6 63.36 58.24 114.56 122.88 126.080 8.32 1.92 17.28 2.56 26.24 2.56h208c37.76-1.92 72.96-17.28 100.48-44.16 23.040-23.040 37.76-52.48 42.24-84.48h-499.84z" />
<glyph unicode="&#xe927;" glyph-name="repisas" d="M843.52 610.56c12.16 0 21.76 10.24 21.76 21.76v100.48c0 12.16-9.6 22.4-21.76 22.4h-115.2v56.32c0 1.92 0 3.84-1.28 5.76 13.44 7.68 21.76 20.48 21.76 36.48 0 23.68-19.2 42.24-42.24 42.24-24.32 0-43.52-18.56-43.52-42.24 0-16 8.96-29.44 22.4-37.12-1.28-1.92-1.28-3.2-1.28-5.12v-56.32h-344.32v56.32c0 1.92 0 3.84-1.28 5.76 13.44 7.040 22.4 20.48 22.4 36.48 0 23.68-19.84 42.24-43.52 42.24-23.040 0-42.88-18.56-42.88-42.24 0-16 8.96-29.44 22.4-36.48-1.28-1.92-1.28-3.84-1.28-5.76v-56.32h-115.2c-12.16 0-21.76-10.24-21.76-22.4v-100.48c0-11.52 9.6-21.76 21.76-21.76h115.2v-161.28h-115.2c-12.16 0-21.76-9.6-21.76-21.76v-100.48c0-11.52 9.6-21.76 21.76-21.76h115.2v-161.28h-115.2c-12.16 0-21.76-9.6-21.76-21.76v-100.48c0-11.52 9.6-21.76 21.76-21.76h663.040c12.16 0 21.76 10.24 21.76 21.76v100.48c0 12.16-9.6 21.76-21.76 21.76h-115.2v161.28h115.2c12.16 0 21.76 10.24 21.76 21.76v100.48c0 12.16-9.6 21.76-21.76 21.76h-115.2v161.28h115.2zM821.12 100.48v-56.96h-618.24v56.96h618.24zM684.16 144h-344.32v161.28h344.32v-161.28zM821.12 405.76v-56.96h-618.24v56.96h618.24zM339.84 449.28v161.28h344.32v-161.28h-344.32zM202.88 654.080v56.96h618.24v-56.96h-618.24z" />
<glyph unicode="&#xe928;" glyph-name="secadores-manos" d="M766.080 120.32h-129.28c0.64 2.56 1.28 5.76 1.28 8.96 0 23.68-14.080 44.8-37.76 56.96l-168.96 96c-3.2 1.92-7.040 2.56-10.88 2.56h-124.8v19.2c0 11.52-9.6 21.12-21.76 21.12h-156.16c-11.52 0-21.12-9.6-21.12-21.12v-211.84c0-11.52 9.6-21.12 21.12-21.12h156.16c12.16 0 21.76 9.6 21.76 21.12v13.44h26.24l100.48-99.2c3.84-4.48 9.6-6.4 15.36-6.4h328.32c52.48 0 80 30.080 80 60.16s-27.52 60.16-80 60.16zM252.16 113.28h-112.64v169.6h112.64v-169.6zM766.080 42.88h-319.36l-101.12 99.2c-3.84 4.48-9.6 6.4-14.72 6.4h-35.2v94.080h119.040l165.12-93.44c9.6-5.12 14.72-11.52 14.72-19.2 0-10.24-7.68-20.48-18.56-25.6-7.68-3.84-19.84-5.76-32.64 4.48h-0.64c-8.96 7.68-36.48 26.24-126.72 85.12-10.24 6.4-23.68 3.84-30.080-5.76-6.4-10.24-3.84-23.040 6.4-29.44 53.12-35.2 113.28-74.88 122.24-81.92 0.64 0 1.28-0.64 1.92-1.28 14.080-11.52 30.080-17.28 46.72-17.28 10.24 0 21.12 2.56 30.72 7.040 7.040 3.2 13.44 7.68 19.2 12.8h152.96c24.32 0 37.12-8.96 37.12-17.92 0-8.32-12.8-17.28-37.12-17.28zM714.88 414.080c-1.28-2.56-1.92-4.48-3.2-7.040h5.12c-1.28 1.92-1.92 4.48-1.92 7.040zM752.64 392.32h-3.84c0.64-1.92 1.28-4.48 1.28-6.4s0-3.2-0.64-4.48c0.64 3.84 1.92 7.68 3.2 10.88zM714.88 414.080c-1.28-2.56-1.92-4.48-3.2-7.040h5.12c-1.28 1.92-1.92 4.48-1.92 7.040zM906.24 896c-12.16 0-21.76-9.6-21.76-21.12v-33.28c-231.040-0.64-424.96-173.44-449.28-396.16-1.28-2.56-1.92-5.12-1.92-8.32 0-0.64 0-0.64 0-1.28-1.28-12.8-1.92-26.24-1.92-39.68v-10.24c0-4.48 1.28-8.96 4.48-12.16 0.64-1.28 1.28-1.92 2.56-3.2 3.84-3.84 8.96-5.76 14.72-5.76h275.2c2.56 0 5.12 0.64 7.040 1.28 2.56 0.64 4.48 1.92 5.76 3.2h0.64c1.92 1.28 3.2 2.56 3.84 4.48 1.92 1.92 3.2 4.48 3.84 7.68 0.64 1.28 0.64 2.56 0.64 4.48s-0.64 4.48-1.28 6.4h135.68v-318.72c0-11.52 9.6-21.12 21.76-21.12 11.52 0 21.12 9.6 21.12 21.12v801.28c0 11.52-9.6 21.12-21.12 21.12zM716.8 407.040h-241.92c0 2.56 0 5.76 0.64 8.32h182.4c12.16 0 21.76 9.6 21.76 21.76 0 11.52-9.6 21.12-21.76 21.12h-177.92c30.080 193.28 199.68 341.12 402.56 341.12h1.92v-229.76c-76.8-17.92-139.52-72.96-166.4-145.28-1.28-1.92-1.92-3.84-1.92-5.76-0.64-0.64-0.64-0.64-0.64-1.28-0.64-0.64-0.64-0.64 0-1.28-0.64-0.64-0.64-1.28-0.64-1.92 0-2.56 0.64-5.12 1.92-7.040zM884.48 435.2h-113.92c23.68 43.52 64.64 76.16 113.92 89.6v-89.6z" />
<glyph unicode="&#xe929;" glyph-name="secadores-pelo" d="M528 645.76v0.64c-1.92 7.68-3.84 15.36-7.040 23.040-2.56 5.76-5.76 12.16-9.6 17.92-1.92 3.2-3.84 5.76-5.76 8.32-3.2 5.12-7.040 9.6-12.16 14.080-1.28 1.28-2.56 2.56-3.84 3.84-1.92 2.56-4.48 4.48-7.040 5.76-5.76 5.12-12.16 8.96-18.56 12.16-3.2 2.56-7.68 4.48-11.52 5.76-0.64 0-1.92 0.64-2.56 1.28-6.4 2.56-13.44 4.48-20.48 5.76-1.92 0.64-3.84 0.64-6.4 0.64-5.76 1.28-11.52 1.92-17.92 1.92h-1.28c-69.76 0-126.080-56.32-126.080-126.080s56.32-126.72 126.080-126.72 126.72 56.96 126.72 126.72c0 8.32-0.64 16.64-2.56 24.96zM403.84 538.88c-44.8 0-81.28 36.48-81.28 81.92 0 44.8 36.48 81.28 81.28 81.28h0.64c10.88 0 21.76-2.56 31.36-6.4s17.92-9.6 25.6-17.28c1.92-1.92 3.84-3.84 5.12-5.76 8.96-10.24 14.72-22.4 17.28-35.2 1.28-5.76 1.92-10.88 1.92-16.64 0-45.44-36.48-81.92-81.92-81.92zM528 645.76v0.64c-1.92 7.68-3.84 15.36-7.040 23.040-2.56 5.76-5.76 12.16-9.6 17.92-1.92 3.2-3.84 5.76-5.76 8.32-3.2 5.12-7.040 9.6-12.16 14.080-1.28 1.28-2.56 2.56-3.84 3.84-1.92 2.56-4.48 4.48-7.040 5.76-5.76 5.12-12.16 8.96-18.56 12.16-3.2 2.56-7.68 4.48-11.52 5.76-0.64 0-1.92 0.64-2.56 1.28-6.4 2.56-13.44 4.48-20.48 5.76-1.92 0.64-3.84 0.64-6.4 0.64-5.76 1.28-11.52 1.92-17.92 1.92h-1.28c-69.76 0-126.080-56.32-126.080-126.080s56.32-126.72 126.080-126.72 126.72 56.96 126.72 126.72c0 8.32-0.64 16.64-2.56 24.96zM403.84 538.88c-44.8 0-81.28 36.48-81.28 81.92 0 44.8 36.48 81.28 81.28 81.28h0.64c10.88 0 21.76-2.56 31.36-6.4s17.92-9.6 25.6-17.28c1.92-1.92 3.84-3.84 5.12-5.76 8.96-10.24 14.72-22.4 17.28-35.2 1.28-5.76 1.92-10.88 1.92-16.64 0-45.44-36.48-81.92-81.92-81.92zM528 645.76v0.64c-1.92 7.68-3.84 15.36-7.040 23.040-2.56 5.76-5.76 12.16-9.6 17.92-1.92 3.2-3.84 5.76-5.76 8.32-3.2 5.12-7.040 9.6-12.16 14.080-1.28 1.28-2.56 2.56-3.84 3.84-1.92 2.56-4.48 4.48-7.040 5.76-5.76 5.12-12.16 8.96-18.56 12.16-3.2 2.56-7.68 4.48-11.52 5.76-0.64 0-1.92 0.64-2.56 1.28-6.4 2.56-13.44 4.48-20.48 5.76-1.92 0.64-3.84 0.64-6.4 0.64-5.76 1.28-11.52 1.92-17.92 1.92h-1.28c-69.76 0-126.080-56.32-126.080-126.080s56.32-126.72 126.080-126.72 126.72 56.96 126.72 126.72c0 8.32-0.64 16.64-2.56 24.96zM403.84 538.88c-44.8 0-81.28 36.48-81.28 81.92 0 44.8 36.48 81.28 81.28 81.28h0.64c10.88 0 21.76-2.56 31.36-6.4s17.92-9.6 25.6-17.28c1.92-1.92 3.84-3.84 5.12-5.76 8.96-10.24 14.72-22.4 17.28-35.2 1.28-5.76 1.92-10.88 1.92-16.64 0-45.44-36.48-81.92-81.92-81.92zM403.84 494.080c-69.76 0-126.080 56.96-126.080 126.080s56.96 126.080 126.080 126.080 126.72-55.68 126.72-125.44-56.96-126.72-126.72-126.72zM403.84 702.080c-44.8 0-81.28-36.48-81.28-81.28s36.48-81.28 81.28-81.28 81.92 35.84 81.92 81.28-36.48 81.28-81.92 81.28zM403.84 494.080c-69.76 0-126.080 56.96-126.080 126.080s56.96 126.080 126.080 126.080c0 0 0 0 0 0 33.28 0 65.28-12.8 88.96-37.12 23.68-23.68 37.12-55.68 37.12-89.6 0.64-68.48-56.32-125.44-126.080-125.44zM404.48 702.080c0 0-0.64 0 0 0-45.44 0-81.92-36.48-81.92-81.28s36.48-81.28 81.28-81.28 81.92 35.84 81.92 81.28c0 21.76-8.32 42.24-23.68 57.6-16 15.36-35.84 23.68-57.6 23.68zM868.48 775.040l-464.64 111.36c-146.56 0-265.6-119.040-265.6-265.6 0-62.72 21.76-120.96 58.88-166.4 0 0 1.92-1.92 3.84-5.12 14.080-19.2 57.6-98.56 15.36-302.72-7.68-40.96-1.92-72.32 16.64-92.8 19.2-20.48 44.16-21.76 53.76-22.4l128-21.76c43.52 0 60.16 17.28 66.56 32 8.32 19.2 2.56 42.88-16 65.28-11.52 35.84 1.92 190.080 73.6 279.040l329.6 78.080c10.24 2.56 17.28 11.52 17.28 21.76v267.52c0 10.88-7.040 19.84-17.28 21.76zM425.6 85.76c0.64-1.92 1.92-3.84 3.84-5.76 10.24-11.52 11.52-19.2 10.88-20.48 0 0-4.48-5.12-21.76-5.76l-126.080 22.4c-1.92 0-3.84 0.64-5.76 0 0 0-13.44-0.64-21.12 8.32-8.32 9.6-10.24 28.8-5.76 53.12 24.96 119.040 22.4 200.32 11.52 254.080 40.32-23.040 87.040-36.48 136.96-36.48h0.64l67.2 16c-56.32-101.12-70.4-240-50.56-285.44zM840.96 503.68l-314.88-75.52c-3.2 0-6.4-0.64-9.6-1.92l-112.64-26.88c-65.28 0-123.52 28.16-163.84 73.6-0.64 0.64-1.28 1.92-1.92 2.56-2.56 3.2-5.12 6.4-7.040 8.32-1.28 1.92-3.2 3.2-3.84 3.84-27.52 37.12-44.16 83.2-44.16 133.12 0 121.6 99.2 220.8 215.68 221.44l110.72-26.88 331.52-79.36v-232.32z" />
<glyph unicode="&#xe92a;" glyph-name="servicios" d="M698.24 407.040c-3.84 0.64-7.040 1.28-10.88 1.28h-0.64c-10.24 1.92-19.84 2.56-30.72 2.56h-288c-128.64 0-232.96-104.32-232.96-232.96v-155.52c0-12.16 9.6-22.4 22.4-22.4h709.12c12.8 0 22.4 10.24 22.4 22.4v155.52c0 114.56-82.56 209.28-190.72 229.12zM438.4 366.080h147.2v-224.64h-147.2v224.64zM312.32 128.64l-44.16-83.84h-88.32v133.12c0 84.48 55.040 155.52 132.48 179.84v-229.12zM318.72 44.8l35.84 67.84c1.28 3.2 2.56 7.040 2.56 10.88v241.92c3.84 0.64 7.040 0.64 10.88 0.64h25.6v-247.040c0-12.16 9.6-22.4 22.4-22.4h192c12.8 0 22.4 10.24 22.4 22.4v247.040h25.6c3.84 0 7.040 0 10.88-0.64v-241.28c0-3.84 1.28-7.040 2.56-10.24l35.84-69.12h-386.56zM844.16 44.8h-88.32l-44.16 85.12v227.84c77.44-24.32 132.48-95.36 132.48-179.84v-133.12zM698.24 407.040c-3.84 0.64-7.040 1.28-10.88 1.28 0.64 0.64 1.28 0.64 1.92 0.64 3.2 0 6.4-0.64 8.96-1.92zM780.16 713.6h-67.84v24.32c0 87.040-71.040 158.080-158.080 158.080h-84.48c-87.040 0-157.44-71.040-157.44-158.080v-117.76c0-110.080 89.6-199.68 199.68-199.68s199.68 89.6 200.32 199.68v48.64h67.84c12.16 0 22.4 10.24 22.4 22.4s-10.24 22.4-22.4 22.4zM357.12 737.92c0 62.080 50.56 113.28 112.64 113.28h84.48c62.080 0 113.28-51.2 113.28-113.28v-24.32h-310.4v24.32zM667.52 620.16c-0.64-85.76-69.76-154.88-155.52-154.88s-154.88 69.12-154.88 154.88v48.64h310.4v-48.64z" />
<glyph unicode="&#xe92b;" glyph-name="sistemas-empotrados" d="M938.88 482.56h-100.48v160.64c0 10.88-7.040 19.84-17.28 21.12v54.4c14.72 15.36 23.68 36.48 23.68 58.88 0 46.72-37.12 85.76-83.84 85.76-46.080 0-83.2-39.040-83.2-85.76 0-22.4 8.32-42.88 23.68-58.24v-55.040c-10.24-1.28-17.28-10.24-17.28-21.12v-171.52c0-10.88 7.040-19.84 17.28-21.76v-35.2h-77.44c-1.92 10.24-10.24 18.56-21.12 18.56h-45.44v16c0 7.040-3.2 13.44-8.96 17.92v255.36c15.36 15.36 23.68 35.84 23.68 58.24 0 46.72-37.12 85.76-83.2 85.76s-83.2-38.4-83.2-85.76c0-23.040 8.96-44.16 24.32-58.88v-254.72c-5.76-3.84-9.6-10.88-9.6-17.92v-16h-45.44c-10.24 0-19.2-8.32-21.12-18.56h-55.68c-3.84 5.12-9.6 7.68-16 7.68h-15.36v46.72c0 10.88-7.040 19.2-16 21.12v354.56c0 12.16-10.24 22.4-21.76 22.4h-76.16c-11.52 0-21.76-10.24-21.76-22.4v-353.92c-10.88-1.28-18.56-10.24-18.56-21.76v-232.96c0-10.88 8.32-20.48 18.56-21.76v-62.080h-45.44c-12.16-0.64-21.76-10.88-21.76-23.040v-78.080c0-12.16 9.6-22.4 21.76-22.4h245.12c11.52 0 21.76 10.24 21.76 22.4v78.080c0 12.16-9.6 22.4-21.76 22.4h-80v62.72c9.6 1.92 16 10.88 16 21.12v46.72h15.36c7.68 0 13.44 3.84 17.28 9.6h55.040c1.92-10.24 10.24-17.28 20.48-17.28h227.84c10.24 0 19.2 7.040 20.48 17.28h78.080v-106.24c0-12.8 10.24-22.4 21.76-22.4h76.16c11.52 0 21.76 9.6 21.76 22.4v185.6h117.76c11.52 0 21.12 10.24 21.12 22.4v66.56c0 12.8-9.6 22.4-21.12 22.4zM174.080 822.4h32.64v-330.88h-32.64v330.88zM309.12 107.52v-33.92h-200.96v33.92h200.96zM174.080 151.68v61.44h32.64v-61.44h-32.64zM260.48 326.4h-15.36c-11.52 0-21.76-9.6-21.76-21.76v-46.72h-67.84v188.8h67.84v-46.72c0-12.16 9.6-22.4 21.76-22.4h15.36v-51.2zM353.28 336.64h-49.28v33.92h49.92v-33.92zM505.6 696.96v-226.56h-32v226.56h1.92c4.48-0.64 9.6-1.28 14.080-1.28 5.12 0 9.6 0.64 14.080 1.28h1.92zM489.6 822.4c21.76 0 39.68-18.56 39.68-41.6 0-12.8-5.76-24.32-14.72-32.64-14.72-11.52-35.2-10.88-49.92 0-10.24 8.96-15.36 20.48-15.36 32.64 0 23.040 17.92 41.6 40.32 41.6zM581.12 319.36h-184.32v69.76h45.44c12.16 0 21.76 9.6 21.76 22.4v15.36h49.92v-16c0-12.8 9.6-22.4 21.76-22.4h45.44v-69.12zM701.44 336.64h-76.8v33.92h76.8v-33.92zM777.6 208h-32.64v241.28h32.64v-241.28zM794.88 494.080h-67.84v126.72h67.84v-126.72zM744.96 665.6v28.16c10.24-1.92 21.76-1.92 32.64 0v-28.16h-32.64zM785.92 745.6c-13.44-11.52-34.56-11.52-49.28 0-9.6 8.32-15.36 19.84-15.36 32.64 0 23.040 17.92 40.96 39.68 40.96 22.4 0 40.32-17.92 40.32-40.96 0-12.8-5.76-24.96-15.36-32.64zM917.12 416h-94.72v21.76h94.72v-21.76zM464 426.88v0l49.92-0.64v0.64h-49.92zM472.96 471.68v0l32-0.64v0.64h-32zM744.96 693.76c5.12-1.28 10.24-1.92 16-1.92s10.88 0.64 16.64 1.92c-10.88-1.92-22.4-1.92-32.64 0z" />
<glyph unicode="&#xe92c;" glyph-name="tanque-presurizado" d="M730.24 695.68h-94.080c1.28 1.92 1.28 3.2 1.28 5.12 0 12.16-10.24 22.4-22.4 22.4h-66.56c-12.16 0-22.4-10.24-22.4-22.4 0-1.92 0-3.2 1.28-5.12h-94.080c-47.36 0-91.52-14.72-128-39.68-3.2 2.56-6.4 3.2-10.24 3.2-76.8 0-133.12-21.12-167.040-62.080-26.88-32-32-69.76-32.64-95.36h-6.4c-12.16 0-22.4-10.24-22.4-22.4v-204.8c0-12.16 10.24-22.4 22.4-22.4h62.080c12.16 0 22.4 10.24 22.4 22.4v204.8c0 12.16-10.24 22.4-22.4 22.4h-11.52c0 17.92 4.48 44.8 23.040 67.2 19.84 23.68 51.2 38.4 94.72 43.52-32-39.040-51.2-89.6-51.2-144v-20.48c0-125.44 101.76-227.2 227.2-227.2h69.76l-7.040-48h176l-8.96 48h67.2c125.44 0 227.2 101.76 227.2 227.2v20.48c0 125.44-101.76 227.2-227.2 227.2zM128.64 296.96h-17.28v160h17.28v-160zM912.64 448c0-100.48-81.92-182.4-182.4-182.4h-296.96c-100.48 0-182.4 81.92-182.4 182.4v20.48c0 100.48 81.92 182.4 182.4 182.4h296.96c100.48 0 182.4-81.92 182.4-182.4v-20.48zM128.64 456.96c-1.92-1.28-3.2-1.28-5.12-1.92-1.28-0.64-3.2-0.64-4.48-0.64-2.56 0-5.12 0.64-7.68 1.28v1.28h17.28z" />
<glyph unicode="&#xe92d;" glyph-name="tanque-empotrado" d="M779.52 896h-535.040c-12.16 0-22.4-9.6-22.4-21.12v-853.12c0-11.52 10.24-21.12 22.4-21.12h113.28c12.16 0 22.4 9.6 22.4 21.12s-10.24 21.12-22.4 21.12h-90.88v118.4h186.88v-139.52c0-11.52 10.24-21.12 22.4-21.12h71.68c12.16 0 22.4 9.6 22.4 21.12v139.52h186.88v-118.4h-90.88c-12.16 0-22.4-9.6-22.4-21.12s10.24-21.12 22.4-21.12h113.28c12.16 0 22.4 9.6 22.4 21.12v853.12c0 11.52-10.24 21.12-22.4 21.12zM266.88 853.12h490.24v-353.28h-490.24v353.28zM266.88 456.96h490.24v-68.48h-490.24v68.48zM525.44 42.88h-26.88v23.040h26.88v-23.040zM525.44 108.16h-26.88v53.12h26.88v-53.12zM266.88 203.52v142.72h490.24v-142.72h-490.24zM567.040 278.4c0-28.984-24.642-52.48-55.040-52.48s-55.040 23.496-55.040 52.48c0 28.984 24.642 52.48 55.040 52.48s55.040-23.496 55.040-52.48zM535.040 421.76c0-12.371-10.315-22.4-23.040-22.4s-23.040 10.029-23.040 22.4c0 12.371 10.315 22.4 23.040 22.4s23.040-10.029 23.040-22.4z" />
<glyph unicode="&#xe92e;" glyph-name="tarjas" d="M908.16 115.2h-792.32c-28.8 0-51.84 23.68-51.84 52.48v560.64c0 28.8 23.040 52.48 51.84 52.48h792.32c28.8 0 51.84-23.68 51.84-52.48v-560.64c0-28.8-23.68-52.48-51.84-52.48zM115.84 737.92c-5.12 0-8.96-3.84-8.96-8.96v-560.64c0-5.12 3.84-8.96 8.96-8.96h792.32c5.12 0 8.96 3.84 8.96 9.6v559.36c0 5.12-3.84 8.96-8.96 8.96h-792.32zM805.12 193.28h-348.8c-37.12 0-67.2 30.72-67.2 67.84v353.28c0 37.76 30.080 67.84 67.2 67.84h348.8c37.12 0 67.2-30.72 67.2-67.84v-352.64c0-37.76-30.080-68.48-67.2-68.48zM456.32 639.36c-13.44 0-24.96-10.88-24.96-24.96v-352.64c0-13.44 10.88-24.96 24.96-24.96h348.8c13.44 0 24.96 10.88 24.96 24.96v352.64c0 13.44-10.88 24.96-24.96 24.96h-348.8zM679.040 435.2c0-26.863-21.49-48.64-48-48.64s-48 21.777-48 48.64c0 26.863 21.49 48.64 48 48.64s48-21.777 48-48.64zM352 570.24h-195.2c-11.52 0-21.12 9.6-21.12 21.76s9.6 21.76 21.12 21.76h195.2c11.52 0 21.12-9.6 21.12-21.76s-9.6-21.76-21.12-21.76zM352 496h-195.2c-11.52 0-21.12 9.6-21.12 21.76s9.6 21.76 21.12 21.76h195.2c11.52 0 21.12-9.6 21.12-21.76s-9.6-21.76-21.12-21.76zM352 421.12h-195.2c-11.52 0-21.12 9.6-21.12 21.76s9.6 21.76 21.12 21.76h195.2c11.52 0 21.12-9.6 21.12-21.76s-9.6-21.76-21.12-21.76zM352 346.88h-195.2c-11.52 0-21.12 9.6-21.12 21.76s9.6 21.76 21.12 21.76h195.2c11.52 0 21.12-9.6 21.12-21.76s-9.6-21.76-21.12-21.76zM352 272.64h-195.2c-11.52 0-21.12 9.6-21.12 21.76s9.6 21.76 21.12 21.76h195.2c11.52 0 21.12-9.6 21.12-21.76s-9.6-21.76-21.12-21.76z" />
<glyph unicode="&#xe92f;" glyph-name="tendedero" d="M958.72 883.2c-3.84 10.88-16 16.64-26.88 12.8-3.84-1.28-369.92-128-839.68 0.64-11.52 2.56-23.040-3.84-26.24-15.36-3.2-10.88 3.84-23.040 14.72-26.24 53.12-14.72 104.96-26.24 154.24-35.2l7.040-68.48c-79.36-48-128.64-135.040-128.64-229.12v-392.96c0-11.52 9.6-21.12 21.12-21.12h124.16v-86.4c0-11.52 9.6-21.12 21.12-21.12h464.64c12.16 0 21.12 9.6 21.12 21.12v86.4h124.8c11.52 0 21.12 9.6 21.12 21.12v392.96c0 90.24-44.16 172.8-117.76 222.72l7.68 74.24c86.4 16 138.24 33.92 144 35.84 12.16 4.48 17.28 16.64 13.44 28.16zM523.52 794.88c90.24 0 169.6 7.040 234.24 17.92l-4.48-44.16c-29.44 12.8-60.8 20.48-92.8 23.040-6.4 0-11.52-1.92-16-6.4-4.48-3.84-7.040-8.96-6.4-15.36v-6.4c0-69.12-56.32-124.8-125.44-124.8s-125.44 56.32-125.44 124.8v5.76c0.64 6.4-1.92 12.16-6.4 16.64s-9.6 6.4-16.64 6.4c-28.16-2.56-55.68-8.96-81.28-19.84l-3.84 40.96c87.68-13.44 170.24-18.56 244.48-18.56zM869.12 522.24v-371.84h-103.040v376.32c0 12.16-8.96 21.12-21.12 21.12-11.52 0-20.48-8.96-20.48-21.12v-483.84h-422.4v483.84c0 12.16-8.96 21.12-21.12 21.12-11.52 0-21.12-8.96-21.12-21.12v-375.68h-102.4v371.2c0 72.32 34.56 139.52 91.52 182.4l1.28-10.24c1.28-10.88 10.24-19.2 20.48-19.2h2.56c12.16 1.28 19.84 11.52 19.2 23.040l-4.48 30.080c18.56 8.32 37.76 14.72 57.6 18.56 8.32-85.12 80.64-150.4 167.040-150.4s158.72 65.92 167.040 150.4c23.68-3.84 46.72-11.52 68.48-23.040l-2.56-25.6c-1.28-11.52 7.040-22.4 19.2-23.68h2.56c10.88 0 19.84 7.68 21.12 19.2l0.64 3.2c50.56-44.8 80-106.88 80-174.72z" />
<glyph unicode="&#xe930;" glyph-name="tinas" d="M901.76 550.4h-47.36v144c0 37.76-37.12 69.12-83.2 69.12-44.8 0-82.56-31.36-82.56-69.12v-1.28c0-12.16 9.6-20.48 21.12-20.48s21.12 10.24 21.12 21.76c0 14.080 19.2 26.24 39.68 26.24 21.12 0 40.32-12.16 40.32-26.24v-144h-688.64c-16 0-30.72-6.4-41.6-17.28s-16.64-24.96-16.64-40.32c0-32 26.24-58.24 58.24-58.24h23.040c47.36-29.44 55.040-75.52 62.72-124.16 6.4-39.68 13.44-80 43.52-108.16l-20.48-38.4c-5.76-10.24-1.92-23.040 8.32-28.8 3.2-1.92 6.4-2.56 10.24-2.56 7.040 0 14.72 3.84 19.2 10.88l23.68 44.8h423.040l23.68-44.8c3.84-7.040 10.88-10.88 19.2-10.88 3.2 0 6.4 0.64 9.6 2.56 10.24 5.76 14.72 18.56 8.96 28.8l-18.56 33.92c-1.28-1.92-2.56-2.56-4.48-3.2 1.28 1.28 2.56 3.2 3.2 5.12l1.28-1.92c34.56 28.16 42.24 70.4 48.64 112 8.32 48.64 16 95.36 62.72 124.16h31.36c16 0 30.72 6.4 41.6 17.28s17.28 26.24 17.28 41.6c0 32-26.24 57.6-58.24 57.6zM765.44 317.44c-6.4-36.48-11.52-68.48-33.28-86.4h-448c-21.76 18.56-27.52 49.92-33.28 86.4-6.4 37.12-14.080 80-41.6 117.12h598.4c-28.8-37.12-35.84-80-42.24-117.12zM912.64 481.92c-2.56-3.2-6.4-5.12-10.88-5.12h-779.52c-8.96 0-16 7.040-16 16 0 3.84 1.92 7.68 4.48 10.88 3.2 2.56 7.040 4.48 11.52 4.48h778.88c8.96 0 16-6.4 16-15.36 0-4.48-1.92-8.32-4.48-10.88zM771.2 100.48c-1.28-1.92-2.56-2.56-4.48-3.2 1.28 1.28 2.56 3.2 3.2 5.12l1.28-1.92z" />
<glyph unicode="&#xe931;" glyph-name="utilitarios" d="M336 75.52c0-41.709-33.811-75.52-75.52-75.52s-75.52 33.811-75.52 75.52c0 41.709 33.811 75.52 75.52 75.52s75.52-33.811 75.52-75.52zM763.52 616.96c-12.8 0-23.68 10.24-23.68 23.68v136.32c0 35.2 21.76 66.56 54.4 79.36l99.2 37.76c12.16 4.48 25.6-1.28 30.080-13.44s-1.28-25.6-13.44-30.080l-98.56-37.76c-14.72-5.76-24.32-19.84-24.32-35.2v-136.32c0-13.44-10.24-24.32-23.68-24.32zM763.52 110.72c-12.8 0-23.68 10.24-23.68 23.68v433.28c0 12.8 10.24 23.68 23.68 23.68s23.68-10.24 23.68-23.68v-433.28c0-13.44-10.24-23.68-23.68-23.68zM260.48 616.32c-13.44 0-23.68 10.88-23.68 23.68v136.96c0 16-9.6 30.080-24.32 35.84l-99.2 37.76c-12.16 4.48-18.56 17.92-14.080 30.080s17.92 18.56 30.080 13.44l99.2-37.76c32.64-12.16 55.040-44.16 55.040-79.36v-136.96c0-12.8-10.24-23.68-23.040-23.68zM260.48 101.76c-12.8 0-23.68 10.24-23.68 23.68v59.52c0 12.8 10.24 23.68 23.68 23.68 12.8 0 23.68-10.24 23.68-23.68v-59.52c-0.64-13.44-10.88-23.68-23.68-23.68zM260.48 141.44c-12.8 0-23.68 10.24-23.68 23.68v401.28c0 12.8 10.24 23.68 23.68 23.68s23.68-10.24 23.68-23.68v-401.28c-0.64-13.44-10.88-23.68-23.68-23.68zM779.52 545.28h-534.4c-12.8 0-23.68 10.24-23.68 23.68v68.48c0 12.8 10.24 23.68 23.68 23.68h533.76c12.8 0 23.68-10.24 23.68-23.68v-68.48c0-12.8-10.24-23.68-23.040-23.68zM268.8 592.64h487.040v21.12h-487.040v-21.12zM839.040 75.52c0-41.709-33.811-75.52-75.52-75.52s-75.52 33.811-75.52 75.52c0 41.709 33.811 75.52 75.52 75.52s75.52-33.811 75.52-75.52zM763.52 101.76c-12.8 0-23.68 10.24-23.68 23.68v59.52c0 12.8 10.24 23.68 23.68 23.68 12.8 0 23.68-10.24 23.68-23.68v-59.52c0-13.44-10.24-23.68-23.68-23.68zM779.52 254.080h-534.4c-12.8 0-23.68 10.24-23.68 23.68v74.88c0 12.8 10.24 23.68 23.68 23.68h533.76c12.8 0 23.68-10.24 23.68-23.68v-74.88c0-13.44-10.24-23.68-23.040-23.68zM268.8 300.8h487.040v28.16h-487.040v-28.16z" />
<glyph unicode="&#xe932;" glyph-name="toalleros" d="M894.72 748.16c-5.12 49.28-46.72 87.040-97.92 87.040h-490.88c-55.68 0-103.68-36.48-119.68-87.040h-122.24v-44.8h115.84v-642.56h595.84v100.48h120.32v542.080h64v44.8h-65.28zM730.88 105.6h-506.24v116.48h506.24v-116.48zM730.88 266.88h-506.24v77.44l56.32-19.2 102.4 37.12 94.72-37.76 87.68 37.12 92.16-36.48 72.96 28.16v-86.4zM730.88 401.28l-72.96-28.16-92.8 37.12-87.68-37.12-93.44 36.48-103.68-37.12-55.68 19.2v318.080c0 44.8 36.48 80.64 81.28 80.64h424.96v-389.12zM775.68 790.4h21.12c26.24 0 48-17.92 53.12-42.24h-74.24v42.24zM851.2 206.080h-75.52v497.28h75.52v-497.28z" />
</font>
</defs>
</svg>
